<svg width="321" height="348" viewBox="0 0 321 348" fill="none" xmlns="http://www.w3.org/2000/svg">
<g clip-path="url(#clip0_83_87)">
<path d="M109.65 341.44C109.65 341.44 81.2101 360.76 79.6501 405.86C79.1301 420.99 86.5601 469.16 86.5601 469.16L252.89 469.83L221.78 340.72L169.45 328.72L109.65 341.44Z" fill="#3880FF"/>
<path d="M133.07 176.02L142.49 174.15L189.08 174.7L212.75 179.9L221.78 312.08L117.13 316.97L133.07 176.02Z" fill="#E0E0E0"/>
<path d="M200.84 306L203.07 245.88L199.36 176.17C214.08 179.96 234.21 184.17 245.36 196.88C252.59 205.13 259.68 215.68 262.36 232.67C265.44 252.67 269.5 290.92 272.04 312.32" fill="#3880FF"/>
<path d="M215.64 296.14L143.29 307.89L140.73 263.21L136.73 174.88C115.73 175.74 91.83 193.09 84.66 206.61C79.66 215.99 75.47 226.89 74.16 237.44C71.65 257.44 67.3999 291.71 64.8599 313.12C64.0917 319.627 64.7826 326.223 66.8826 332.429C68.9825 338.636 72.4387 344.296 76.9999 349C87.4999 359.83 103.94 363.58 118.72 360.52L228.88 329.52L215.64 296.14Z" fill="#3880FF"/>
<path d="M208 295.34C208.006 295.255 208.023 295.171 208.05 295.09C208.11 294.91 208.18 294.67 208.26 294.37C208.47 293.7 208.75 292.77 209.12 291.58C209.9 289.12 211.01 285.58 212.39 281.2L223.74 245.76L223.89 246.07L212.16 241.22L211.7 241.03L212.11 240.76L214.82 238.98L223.67 233.2L223.57 233.48C219.07 217.86 215.11 204.08 212.26 194.17C210.87 189.25 209.75 185.29 208.96 182.53C208.6 181.18 208.31 180.13 208.1 179.38C208.013 179.053 207.943 178.783 207.89 178.57C207.858 178.48 207.837 178.386 207.83 178.29C207.83 178.29 207.83 178.37 207.93 178.55L208.19 179.36C208.42 180.1 208.74 181.14 209.14 182.48L212.59 194.07L224.06 233.34L224.11 233.52L223.95 233.63L215.11 239.42L212.4 241.19V240.73L224.12 245.6L224.34 245.69L224.27 245.91C219.65 260.1 215.62 272.45 212.74 281.3C211.29 285.68 210.14 289.19 209.33 291.63C208.93 292.81 208.61 293.74 208.39 294.4C208.29 294.69 208.2 294.92 208.14 295.11C208.102 295.192 208.055 295.269 208 295.34Z" fill="#263238"/>
<g opacity="0.2">
<path d="M224 233.56C223.41 235.729 222.133 237.648 220.36 239.03C218.98 239.82 219.77 240.87 220.91 241.97C222.28 243.29 224.48 243.65 225.49 245.25C226.5 246.85 225.93 248.68 225.41 250.36C220.4 266.299 214.32 281.881 207.21 297L224 245.83L212.29 241L224 233.56Z" fill="black"/>
</g>
<path d="M137.27 296.58C137.22 296.516 137.18 296.445 137.15 296.37C137.08 296.21 136.98 296.01 136.87 295.75L135.79 293.31C134.85 291.15 133.51 288.04 131.79 284.16L118.3 252.54L118.22 252.36L118.39 252.24L127.64 245.62V246L121.51 241.14L118.79 239L117.44 238L117.11 237.73C117.04 237.681 116.977 237.624 116.92 237.56C116.855 237.477 116.808 237.382 116.78 237.28C116.706 236.982 116.669 236.677 116.67 236.37C116.732 234.132 116.939 231.901 117.29 229.69C117.9 225.36 118.62 221.2 119.29 217.24C120.71 209.33 122.12 202.24 123.29 196.24C124.46 190.24 125.51 185.47 126.22 182.15C126.58 180.51 126.87 179.23 127.07 178.32L127.3 177.32C127.317 177.206 127.351 177.095 127.4 176.99C127.394 177.108 127.378 177.225 127.35 177.34C127.35 177.59 127.24 177.92 127.17 178.34C126.99 179.253 126.74 180.533 126.42 182.18C125.76 185.54 124.82 190.36 123.66 196.3C122.5 202.24 121.14 209.37 119.74 217.3C119.05 221.25 118.34 225.41 117.74 229.73C117.395 231.915 117.192 234.119 117.13 236.33C117.127 236.586 117.158 236.842 117.22 237.09C117.22 237.21 117.51 237.39 117.72 237.57L119.06 238.63L121.77 240.78L127.89 245.63L128.16 245.85L127.88 246.05L118.62 252.65L118.7 252.34L132.11 284C133.74 287.91 135.04 291 135.94 293.21C136.37 294.26 136.71 295.08 136.94 295.68L137.18 296.32C137.217 296.404 137.247 296.491 137.27 296.58Z" fill="#263238"/>
<path d="M224.748 253.193L151.851 241.947C150.535 241.744 149.304 242.646 149.101 243.962L133.379 345.876C133.176 347.192 134.078 348.422 135.393 348.625L208.291 359.871C209.606 360.074 210.837 359.172 211.04 357.857L226.763 255.943C226.965 254.627 226.064 253.396 224.748 253.193Z" fill="#3880FF"/>
<g opacity="0.2">
<path d="M224.748 253.193L151.851 241.947C150.535 241.744 149.304 242.646 149.101 243.962L133.379 345.876C133.176 347.192 134.078 348.422 135.393 348.625L208.291 359.871C209.606 360.074 210.837 359.172 211.04 357.857L226.763 255.943C226.965 254.627 226.064 253.396 224.748 253.193Z" fill="black"/>
</g>
<path d="M222.446 255.16L153.453 244.516L138.133 343.821L207.126 354.465L222.446 255.16Z" fill="#EBEBEB"/>
<path d="M201.72 253.53C201.231 252.019 200.331 250.674 199.121 249.644C197.912 248.615 196.44 247.942 194.87 247.7L195.45 243.45C195.686 241.911 195.301 240.341 194.381 239.085C193.46 237.829 192.079 236.989 190.54 236.75C188.999 236.512 187.427 236.895 186.168 237.816C184.91 238.736 184.069 240.119 183.83 241.66L183.15 246.06L181.67 245.86C180.118 245.644 178.536 245.861 177.098 246.485C175.66 247.109 174.422 248.118 173.52 249.4L172.37 251L202.37 255.64L201.72 253.53ZM189.32 245.77C188.702 245.676 188.126 245.4 187.664 244.978C187.203 244.556 186.877 244.006 186.728 243.399C186.579 242.792 186.614 242.154 186.828 241.566C187.041 240.979 187.424 240.468 187.929 240.098C188.433 239.728 189.035 239.516 189.66 239.489C190.285 239.462 190.904 239.621 191.438 239.945C191.972 240.27 192.398 240.746 192.662 241.313C192.926 241.88 193.016 242.512 192.92 243.13C192.79 243.956 192.338 244.697 191.664 245.191C190.989 245.686 190.147 245.894 189.32 245.77Z" fill="#263238"/>
<path d="M176.83 262.55C173.677 262.332 170.539 261.938 167.43 261.37C164.299 260.971 161.191 260.403 158.12 259.67C161.27 259.888 164.404 260.282 167.51 260.85C170.645 261.249 173.756 261.816 176.83 262.55Z" fill="#263238"/>
<path d="M166.65 264.21C165.121 264.243 163.594 264.096 162.1 263.77C160.579 263.623 159.079 263.304 157.63 262.82C159.158 262.799 160.684 262.946 162.18 263.26C163.701 263.407 165.201 263.726 166.65 264.21Z" fill="#263238"/>
<path d="M209.24 279.79C209.24 279.93 197.54 278.24 183.17 276.03C168.8 273.82 157.17 271.89 157.17 271.75C157.17 271.61 168.86 273.29 183.24 275.51C197.62 277.73 209.26 279.64 209.24 279.79Z" fill="#263238"/>
<path d="M208.47 284.75C208.47 284.89 196.78 283.21 182.4 280.99C168.02 278.77 156.4 276.86 156.4 276.72C156.4 276.58 168.09 278.26 182.47 280.48C196.85 282.7 208.49 284.61 208.47 284.75Z" fill="#263238"/>
<path d="M207.71 289.72C207.71 289.86 196.01 288.17 181.64 285.96C167.27 283.75 155.64 281.82 155.64 281.68C155.64 281.54 167.34 283.22 181.72 285.44C196.1 287.66 207.73 289.57 207.71 289.72Z" fill="#263238"/>
<path d="M206.94 294.68C206.94 294.82 195.25 293.14 180.87 290.92C166.49 288.7 154.87 286.79 154.87 286.64C154.87 286.49 166.56 288.19 180.94 290.41C195.32 292.63 207 294.54 206.94 294.68Z" fill="#263238"/>
<path d="M206.17 299.64C206.17 299.79 194.48 298.1 180.1 295.88C165.72 293.66 154.1 291.75 154.1 291.61C154.1 291.47 165.79 293.15 180.17 295.37C194.55 297.59 206.2 299.5 206.17 299.64Z" fill="#263238"/>
<path d="M205.41 304.61C205.41 304.75 193.71 303.07 179.34 300.85C164.97 298.63 153.34 296.72 153.34 296.57C153.34 296.42 165.03 298.11 179.41 300.33C193.79 302.55 205.43 304.47 205.41 304.61Z" fill="#263238"/>
<path d="M178.69 305.07C178.355 305.087 178.02 305.067 177.69 305.01C177.02 304.94 176.07 304.82 174.89 304.66C172.52 304.34 169.26 303.87 165.67 303.32C162.08 302.77 158.83 302.23 156.48 301.82C155.3 301.62 154.36 301.44 153.7 301.31C153.356 301.269 153.02 301.182 152.7 301.05C153.034 301.027 153.37 301.047 153.7 301.11C154.37 301.18 155.32 301.3 156.5 301.46C158.87 301.77 162.13 302.25 165.72 302.8C169.31 303.35 172.56 303.89 174.91 304.3C176.09 304.5 177.03 304.68 177.69 304.81C178.033 304.851 178.37 304.938 178.69 305.07Z" fill="#263238"/>
<path d="M213.41 267.74C211.996 267.783 210.582 267.652 209.2 267.35C207.791 267.222 206.404 266.92 205.07 266.45C207.892 266.538 210.693 266.971 213.41 267.74Z" fill="#263238"/>
<path d="M165.18 314.06C162.897 313.968 160.624 313.704 158.38 313.27C156.11 313.009 153.864 312.574 151.66 311.97C153.944 312.061 156.217 312.325 158.46 312.76C160.73 313.024 162.976 313.459 165.18 314.06Z" fill="#263238"/>
<path d="M164.94 318.64C162.616 318.541 160.303 318.271 158.02 317.83C155.712 317.568 153.429 317.127 151.19 316.51C153.51 316.608 155.82 316.879 158.1 317.32C160.411 317.581 162.698 318.022 164.94 318.64Z" fill="#263238"/>
<path d="M204.5 319.44C202.284 319.448 200.081 319.11 197.97 318.44C199.079 318.352 200.195 318.433 201.28 318.68C202.387 318.757 203.475 319.014 204.5 319.44Z" fill="#263238"/>
<path d="M204.1 323.53C201.884 323.538 199.681 323.2 197.57 322.53C199.785 322.522 201.988 322.86 204.1 323.53Z" fill="#263238"/>
<path d="M157.9 322.4C156.828 322.489 155.748 322.411 154.7 322.17C153.629 322.09 152.579 321.837 151.59 321.42C152.659 321.325 153.736 321.403 154.78 321.65C155.854 321.727 156.908 321.98 157.9 322.4Z" fill="#263238"/>
<path d="M203.6 328.3C202.798 328.431 201.977 328.394 201.19 328.19C200.378 328.149 199.584 327.938 198.86 327.57C199.661 327.427 200.484 327.461 201.27 327.67C202.083 327.711 202.877 327.926 203.6 328.3Z" fill="#263238"/>
<path d="M149.52 332.05C149.913 332.015 150.307 332.015 150.7 332.05L154.02 332.15L165.88 332.62H166.15L166.09 332.88C165.793 334.166 165.057 335.308 164.01 336.11C163.455 336.554 162.807 336.866 162.114 337.023C161.422 337.181 160.702 337.18 160.01 337.02C159.271 336.849 158.585 336.499 158.012 336.003C157.438 335.506 156.995 334.877 156.72 334.17C156.468 333.411 156.449 332.593 156.667 331.823C156.884 331.053 157.328 330.365 157.94 329.85C158.389 329.444 158.932 329.155 159.52 329.01C159.667 328.972 159.818 328.949 159.97 328.94C160.133 328.92 160.297 328.92 160.46 328.94C160.569 328.958 160.673 329.002 160.761 329.068C160.85 329.134 160.922 329.22 160.97 329.32C161.036 329.492 161.057 329.678 161.03 329.86C160.898 330.979 160.527 332.057 159.94 333.02C159.369 333.942 158.618 334.738 157.73 335.36C156.865 336.009 155.812 336.36 154.73 336.36C154.209 336.323 153.708 336.142 153.284 335.836C152.86 335.531 152.53 335.113 152.33 334.63C151.947 333.75 151.877 332.766 152.13 331.84C152.722 330.298 153.684 328.924 154.93 327.84L155.2 327.57V327.95C155.36 329.33 155.095 330.725 154.44 331.95C153.953 332.876 153.271 333.684 152.44 334.32C151.923 334.721 151.346 335.038 150.73 335.26C150.519 335.344 150.296 335.398 150.07 335.42C150.883 335.123 151.643 334.698 152.32 334.16C153.092 333.516 153.721 332.719 154.17 331.82C154.772 330.636 154.998 329.296 154.82 327.98L155.14 328.08C153.957 329.141 153.048 330.472 152.49 331.96C152.272 332.789 152.342 333.667 152.69 334.45C152.856 334.852 153.132 335.2 153.485 335.455C153.838 335.709 154.256 335.86 154.69 335.89C155.645 335.88 156.571 335.561 157.33 334.98C158.176 334.388 158.886 333.625 159.415 332.739C159.944 331.853 160.28 330.865 160.4 329.84C160.422 329.751 160.422 329.659 160.4 329.57C160.4 329.52 160.4 329.5 160.26 329.48C160.018 329.466 159.775 329.49 159.54 329.55C159.036 329.678 158.569 329.925 158.18 330.27C157.651 330.722 157.267 331.319 157.077 331.988C156.887 332.657 156.898 333.368 157.11 334.03C157.351 334.64 157.731 335.184 158.221 335.619C158.711 336.055 159.297 336.369 159.93 336.536C160.564 336.703 161.228 336.72 161.869 336.583C162.51 336.446 163.11 336.161 163.62 335.75C164.587 335.026 165.27 333.985 165.55 332.81L165.76 333.08L154 332.39L150.68 332.17C150.291 332.154 149.904 332.114 149.52 332.05Z" fill="#263238"/>
<path d="M198.94 339.5C198.781 339.727 198.589 339.929 198.37 340.1C198.114 340.319 197.827 340.501 197.52 340.64C197.088 340.831 196.6 340.856 196.15 340.71C195.866 340.623 195.62 340.443 195.45 340.2C195.281 339.936 195.185 339.633 195.17 339.32C195.178 338.681 195.225 338.043 195.31 337.41C195.44 336.05 195.59 334.56 195.75 332.95L196.18 333.12L192.36 338.29L191.41 339.57L190.79 340.41L190.94 339.41C191.35 336.74 191.72 334.25 192.05 332.06L192.42 332.26C190.86 333.575 189.478 335.088 188.31 336.76C187.47 337.97 187.07 338.76 187.02 338.7C187.069 338.5 187.146 338.308 187.25 338.13C187.507 337.612 187.79 337.108 188.1 336.62C189.197 334.867 190.545 333.284 192.1 331.92L192.55 331.53L192.46 332.13C192.16 334.31 191.8 336.81 191.46 339.49L190.99 339.29L191.99 338.01C193.35 336.19 194.64 334.45 195.84 332.86L196.37 332.14L196.27 333.03C196.08 334.64 195.91 336.13 195.75 337.48C195.657 338.093 195.597 338.711 195.57 339.33C195.554 339.571 195.615 339.81 195.744 340.013C195.874 340.217 196.065 340.373 196.29 340.46C196.636 340.553 196.999 340.56 197.348 340.48C197.696 340.4 198.02 340.235 198.29 340C198.493 339.816 198.71 339.649 198.94 339.5Z" fill="#263238"/>
<path d="M200.7 336.78C197.436 337.022 194.161 337.093 190.89 336.99C187.62 337.062 184.349 336.962 181.09 336.69C184.35 336.441 187.622 336.368 190.89 336.47C194.163 336.398 197.438 336.501 200.7 336.78Z" fill="#263238"/>
<path d="M203.89 339.89C201.303 340.428 198.685 340.799 196.05 341C193.436 341.368 190.8 341.569 188.16 341.6C190.745 341.047 193.364 340.673 196 340.48C198.614 340.106 201.25 339.909 203.89 339.89Z" fill="#263238"/>
<g opacity="0.2">
<path d="M116.93 236.93C116.81 239.93 117.62 242.99 120.12 244.68C116.99 246.2 115.32 249.84 115.22 253.32C115.12 256.8 116.33 260.18 117.64 263.41C121.69 273.34 130.33 287.32 136.92 295.78C136.92 295.78 133.58 286.78 132.62 284.67C128.28 275.18 124.45 265.67 120.1 256.15C119.62 255.15 118.76 252.23 118.76 252.23C119.234 251.997 119.671 251.697 120.06 251.34C122.5 249.34 127.79 245.83 127.79 245.83C127.79 245.83 116.93 237.23 116.93 236.93Z" fill="black"/>
</g>
<path d="M116.78 257.33C116.92 257.33 116.67 268.88 116.21 283.11C115.75 297.34 115.27 308.88 115.13 308.87C114.99 308.86 115.23 297.33 115.69 283.09C116.15 268.85 116.63 257.32 116.78 257.33Z" fill="#263238"/>
<path d="M134 227H133C133 226.62 134.45 188.79 135.58 173.73C135.617 172.673 135.869 171.635 136.321 170.679C136.774 169.723 137.416 168.869 138.21 168.17C141.33 165.5 146 165.85 146.21 165.86L146.13 166.86C146.08 166.86 141.67 166.54 138.87 168.93C138.179 169.547 137.619 170.297 137.226 171.136C136.832 171.974 136.612 172.884 136.58 173.81C135.48 188.76 134.05 226.58 134 227Z" fill="#263238"/>
<path d="M143.37 290.28H141.6V288.28H143.37C145.227 288.28 147.007 287.542 148.32 286.23C149.633 284.917 150.37 283.137 150.37 281.28V260.1H152.37V281.28C152.37 283.667 151.422 285.956 149.734 287.644C148.046 289.332 145.757 290.28 143.37 290.28Z" fill="#455A64"/>
<path d="M144.09 289.52C144.048 289.943 143.882 290.344 143.613 290.673C143.343 291.002 142.982 291.243 142.575 291.367C142.168 291.491 141.734 291.491 141.327 291.367C140.92 291.244 140.559 291.003 140.289 290.674C140.019 290.346 139.853 289.944 139.811 289.521C139.769 289.098 139.853 288.672 140.054 288.297C140.254 287.922 140.561 287.615 140.936 287.414C141.311 287.213 141.737 287.129 142.16 287.17C142.727 287.228 143.247 287.508 143.609 287.948C143.97 288.388 144.143 288.953 144.09 289.52Z" fill="#263238"/>
<path d="M126.07 290.23H124.3C121.913 290.23 119.624 289.282 117.936 287.594C116.248 285.906 115.3 283.617 115.3 281.23L115.38 260.05H117.38L117.3 281.23C117.3 283.087 118.037 284.867 119.35 286.18C120.663 287.493 122.443 288.23 124.3 288.23H126.07V290.23Z" fill="#455A64"/>
<path d="M123.59 289.46C123.631 289.881 123.796 290.28 124.064 290.607C124.332 290.934 124.691 291.174 125.096 291.298C125.5 291.421 125.932 291.422 126.337 291.3C126.742 291.178 127.101 290.939 127.371 290.612C127.64 290.286 127.806 289.888 127.849 289.467C127.891 289.046 127.808 288.622 127.61 288.249C127.413 287.875 127.108 287.568 126.736 287.368C126.364 287.167 125.941 287.081 125.52 287.12C125.239 287.146 124.967 287.228 124.718 287.36C124.469 287.492 124.248 287.672 124.069 287.889C123.889 288.106 123.755 288.357 123.673 288.627C123.59 288.896 123.562 289.18 123.59 289.46Z" fill="#263238"/>
<path d="M114.79 262.49L114.54 247.39C114.35 235.88 122.76 226.39 133.29 226.2C135.854 226.177 138.395 226.694 140.747 227.718C143.099 228.741 145.209 230.248 146.94 232.14C150.619 236.121 152.683 241.33 152.73 246.75L152.98 261.86L149.98 261.91L149.73 246.8C149.693 242.12 147.91 237.623 144.73 234.19C143.289 232.598 141.527 231.329 139.561 230.467C137.594 229.606 135.467 229.17 133.32 229.19C124.44 229.34 117.32 237.47 117.52 247.33L117.77 262.43L114.79 262.49Z" fill="#263238"/>
<path d="M200.21 227.56C200.21 227.16 195.62 187.85 194.3 175.25L194.21 174.33C193.8 170.05 193.32 165.21 188.59 163.93L188.85 162.93C194.25 164.39 194.78 169.83 195.21 174.2L195.3 175.11C196.61 187.71 201.16 227.02 201.2 227.42L200.21 227.56Z" fill="#263238"/>
<path d="M208.301 228.41C212.491 224.22 212.491 217.426 208.301 213.236C204.111 209.045 197.317 209.045 193.126 213.236C188.936 217.426 188.936 224.22 193.126 228.41C197.317 232.601 204.11 232.601 208.301 228.41Z" fill="#263238"/>
<path d="M205.89 220.82C205.89 221.847 205.585 222.851 205.014 223.704C204.444 224.558 203.633 225.223 202.684 225.616C201.735 226.008 200.691 226.111 199.684 225.91C198.677 225.708 197.752 225.213 197.026 224.486C196.301 223.759 195.807 222.834 195.608 221.826C195.409 220.819 195.513 219.775 195.908 218.827C196.302 217.879 196.969 217.069 197.824 216.5C198.678 215.931 199.683 215.628 200.71 215.63C201.391 215.63 202.065 215.764 202.694 216.025C203.323 216.286 203.895 216.669 204.376 217.151C204.857 217.633 205.239 218.205 205.498 218.835C205.758 219.464 205.891 220.139 205.89 220.82Z" fill="#455A64"/>
<path d="M137.27 296.58L123.8 329.71L231.25 359.5C236.162 360.869 241.316 361.13 246.342 360.265C251.367 359.401 256.138 357.432 260.31 354.5C271.55 346.57 274.31 332.7 272.94 318.97L271 304.37L137.27 296.58Z" fill="#3880FF"/>
<path d="M251.11 332.54C251 332.54 250.77 330.28 249.66 326.79C249.375 325.837 249.041 324.899 248.66 323.98C248.28 322.98 247.75 321.98 247.22 320.86C245.986 318.545 244.537 316.352 242.89 314.31C241.213 312.294 239.352 310.439 237.33 308.77C236.33 308.04 235.47 307.31 234.56 306.77C233.737 306.203 232.886 305.679 232.01 305.2C228.81 303.43 226.62 302.75 226.66 302.64C227.184 302.747 227.696 302.905 228.19 303.11C228.787 303.304 229.371 303.534 229.94 303.8C230.61 304.11 231.39 304.42 232.19 304.88C233.088 305.34 233.959 305.851 234.8 306.41C235.73 306.97 236.65 307.7 237.63 308.41C239.698 310.08 241.597 311.949 243.3 313.99C244.964 316.06 246.418 318.291 247.64 320.65C248.17 321.76 248.69 322.8 249.06 323.83C249.448 324.763 249.782 325.718 250.06 326.69C250.311 327.484 250.515 328.292 250.67 329.11C250.828 329.73 250.939 330.362 251 331C251.083 331.509 251.12 332.024 251.11 332.54Z" fill="#263238"/>
<g opacity="0.2">
<path d="M121.4 310.68C113.2 311.36 106.87 312.11 98.3999 313.15C93.1099 313.8 87.6199 313.43 85.8899 308.4C84.1599 303.37 85.2599 297.61 88.0999 293.1C90.9399 288.59 95.3999 278.1 119.28 286.1L121.4 310.68Z" fill="black"/>
</g>
<path d="M132.46 309.23L132.52 309.01L132.75 308.35L133.65 305.83L137.1 296.52L137.15 296.39H137.28L173.83 299.7L209.19 303.06L219.9 304.13L222.81 304.45L223.56 304.55C223.649 304.552 223.737 304.569 223.82 304.6H223.56H222.8L219.88 304.38L209.15 303.46L173.78 300.26L137.25 296.79L137.43 296.67L133.83 305.93L132.83 308.41L132.56 309.05C132.51 309.17 132.47 309.24 132.46 309.23Z" fill="#263238"/>
<g opacity="0.2">
<path d="M176.67 343.4C191.93 347.49 201.21 345.12 215.07 337.54C217.909 335.875 220.635 334.025 223.23 332C225.206 330.384 226.964 328.519 228.46 326.45C210.61 333.28 195.78 338.45 177.38 343.59" fill="black"/>
</g>
<path d="M132.51 308.87L136 299.12L127.89 286.44C127.188 285.341 126.269 284.397 125.189 283.666C124.109 282.936 122.891 282.433 121.61 282.19L91.7702 276.56C91.399 277.677 91.4506 278.892 91.915 279.974C92.3794 281.056 93.2245 281.93 94.2902 282.43C98.2002 284.66 115.79 288.75 115.79 288.75L88.7002 288.29C88.7002 288.29 87.8602 292.2 90.9302 293.6C94.0002 295 113.3 295.71 113.3 295.71L88.5902 299.19C88.5902 299.19 88.4502 303.11 94.1002 303.19C99.6644 303.124 105.222 302.773 110.75 302.14C110.979 302.108 111.211 302.166 111.398 302.303C111.585 302.439 111.711 302.642 111.75 302.87C111.784 303.09 111.734 303.315 111.61 303.5C111.486 303.686 111.297 303.817 111.08 303.87L94.6502 307.75C94.1767 307.857 93.7519 308.117 93.4417 308.49C93.1315 308.863 92.9535 309.329 92.9352 309.813C92.9169 310.298 93.0595 310.776 93.3408 311.171C93.622 311.567 94.0261 311.858 94.4902 312C94.7879 312.072 95.0956 312.092 95.4002 312.06C98.2002 311.78 114.92 309.66 114.92 309.66L115.79 311.61L132.51 308.89" fill="#B78876"/>
<path d="M120.24 305.86C120.013 305.322 119.702 304.822 119.32 304.38C118.878 303.929 118.337 303.586 117.74 303.38C117.002 303.154 116.229 303.07 115.46 303.13C113.8 303.25 112.3 303.73 111.18 303.87C110.575 304.017 109.944 304.017 109.34 303.87C109.922 303.705 110.513 303.575 111.11 303.48C112.523 303.062 113.968 302.761 115.43 302.58C116.27 302.514 117.114 302.623 117.91 302.9C118.557 303.151 119.134 303.556 119.59 304.08C119.829 304.305 120.013 304.584 120.126 304.893C120.239 305.202 120.278 305.533 120.24 305.86Z" fill="#AA6550"/>
<path d="M122.94 298.43C122.89 298.43 122.86 298.16 122.64 297.73C122.315 297.133 121.821 296.646 121.22 296.33C119.71 295.45 117.16 295.74 114.48 295.92C111.8 296.1 109.34 296.5 107.57 296.73C106.62 296.91 105.657 297.007 104.69 297.02C105.606 296.71 106.551 296.493 107.51 296.37C109.798 295.921 112.108 295.587 114.43 295.37C115.713 295.253 117.002 295.203 118.29 295.22C119.376 295.194 120.449 295.456 121.4 295.98C122.044 296.352 122.544 296.93 122.82 297.62C122.945 297.87 122.987 298.154 122.94 298.43Z" fill="#AA6550"/>
<path d="M125 294.11C124.977 293.317 124.761 292.541 124.37 291.85C123.924 291.127 123.306 290.525 122.57 290.1C121.638 289.612 120.618 289.313 119.57 289.22C117.33 289.01 115.23 289.22 113.7 289.1C112.869 289.099 112.049 288.9 111.31 288.52C111.31 288.44 112.23 288.71 113.72 288.74C115.21 288.77 117.28 288.49 119.63 288.74C120.748 288.833 121.831 289.174 122.8 289.74C123.596 290.225 124.245 290.916 124.68 291.74C124.982 292.284 125.137 292.898 125.13 293.52C125.11 293.89 125 294.11 125 294.11Z" fill="#AA6550"/>
<path d="M221.87 294.08C221.872 293.537 221.922 292.995 222.02 292.46C222.15 291.46 222.4 289.92 222.75 288.08C223.44 284.4 224.66 279.37 225.95 273.82C227.091 269.093 227.962 264.306 228.56 259.48C228.68 258.55 228.73 257.71 228.8 256.97C228.87 256.23 228.91 255.6 228.93 255.07C228.925 254.527 228.972 253.984 229.07 253.45C229.135 253.991 229.155 254.536 229.13 255.08C229.13 255.6 229.13 256.25 229.13 256.99C229.13 257.73 229.07 258.58 228.96 259.51C228.474 264.371 227.652 269.193 226.5 273.94C225.2 279.5 223.93 284.5 223.15 288.16C222.76 289.98 222.45 291.47 222.26 292.49C222.174 293.03 222.043 293.561 221.87 294.08Z" fill="#263238"/>
<path d="M232.24 359.68C232.039 359.676 231.841 359.643 231.65 359.58L229.99 359.21L223.91 357.71C218.78 356.42 211.71 354.55 203.91 352.39C196.11 350.23 189.12 348.16 184.07 346.61L178.07 344.75L176.45 344.21C176.293 344.157 176.142 344.086 176 344C176.198 344.013 176.393 344.054 176.58 344.12L178.23 344.56L184.23 346.27L204.11 351.9L224 357.36L230 359.01L231.64 359.48C231.847 359.525 232.048 359.592 232.24 359.68Z" fill="#263238"/>
<path d="M129.3 69.63C131.5 62.84 142.77 56.71 148.95 53.15C158.2 47.84 166.77 48.9 172.05 53.63C181.59 45.63 194.16 37.93 206.21 41.08C218.26 44.23 228.05 56.57 225.85 68.84C224.56 76.07 219.55 82.55 219.85 89.84C220.05 94.84 222.7 99.36 224.85 103.9C227 108.44 228.58 113.72 226.7 118.36C224.95 122.67 220.58 125.36 218.23 129.36C216.31 132.64 215.87 136.54 214.64 140.13C210.1 153.43 194.4 160.89 180.54 158.55C166.68 156.21 155.13 145.78 148.54 133.34C141.95 120.9 139.83 106.62 139.07 92.59" fill="#263238"/>
<path d="M139.51 79L142.28 189.9C143.28 202.61 154.99 211.9 168.59 210.72C182.32 209.54 192.81 198.17 192.02 185.31C191.19 171.82 190.57 157.59 190.57 157.59C190.57 157.59 207.76 153.59 209.9 130.67C210.99 118.93 209.09 99.67 207.1 84.41C206.71 81.3676 205.708 78.4356 204.155 75.7904C202.602 73.1453 200.53 70.8416 198.064 69.018C195.598 67.1944 192.788 65.8886 189.804 65.1792C186.82 64.4698 183.723 64.3714 180.7 64.89" fill="#B78876"/>
<path d="M202 100.8C202.058 101.557 201.818 102.306 201.33 102.888C200.842 103.469 200.145 103.836 199.39 103.91C199.022 103.965 198.647 103.945 198.287 103.852C197.927 103.76 197.589 103.596 197.293 103.37C196.998 103.144 196.751 102.862 196.566 102.539C196.382 102.216 196.264 101.859 196.22 101.49C196.164 100.733 196.405 99.9832 196.892 99.4008C197.38 98.8183 198.075 98.4486 198.83 98.37C199.198 98.3167 199.574 98.3376 199.934 98.4315C200.294 98.5255 200.632 98.6905 200.927 98.9169C201.222 99.1434 201.47 99.4266 201.654 99.75C201.838 100.073 201.956 100.43 202 100.8Z" fill="#263238"/>
<path d="M204.89 97.84C204.55 98.24 202.24 96.75 199.11 96.96C195.98 97.17 193.79 98.88 193.43 98.52C193.25 98.36 193.57 97.66 194.52 96.86C195.816 95.8321 197.398 95.2312 199.05 95.14C200.675 95.033 202.292 95.4425 203.67 96.31C204.68 97 205.05 97.65 204.89 97.84Z" fill="#263238"/>
<path d="M172 103.94C172.061 104.698 171.822 105.451 171.334 106.034C170.845 106.618 170.147 106.986 169.39 107.06C169.022 107.113 168.646 107.092 168.286 106.998C167.926 106.905 167.588 106.739 167.293 106.513C166.997 106.287 166.75 106.003 166.566 105.68C166.382 105.357 166.264 105 166.22 104.63C166.164 103.873 166.405 103.123 166.892 102.541C167.38 101.958 168.075 101.589 168.83 101.51C169.198 101.457 169.574 101.478 169.934 101.572C170.294 101.665 170.632 101.83 170.927 102.057C171.222 102.283 171.47 102.567 171.654 102.89C171.838 103.213 171.956 103.57 172 103.94Z" fill="#263238"/>
<path d="M174.16 100.41C173.82 100.81 171.51 99.32 168.38 99.53C165.25 99.74 163.06 101.45 162.7 101.09C162.52 100.93 162.84 100.23 163.8 99.43C165.093 98.4041 166.672 97.8033 168.32 97.71C169.945 97.603 171.562 98.0125 172.94 98.88C174 99.56 174.32 100.22 174.16 100.41Z" fill="#263238"/>
<path d="M187 122.88C187 122.71 188.89 122.25 192 121.64C192.79 121.51 193.54 121.3 193.64 120.74C193.654 119.911 193.413 119.098 192.95 118.41C192.08 116.52 191.16 114.55 190.2 112.48C186.36 104.02 183.52 97.05 183.86 96.9C184.2 96.75 187.59 103.48 191.44 111.9C192.36 113.98 193.25 115.97 194.09 117.9C194.661 118.829 194.881 119.933 194.71 121.01C194.613 121.299 194.45 121.562 194.235 121.779C194.02 121.995 193.759 122.16 193.47 122.26C193.038 122.411 192.587 122.502 192.13 122.53C189 122.92 187 123.06 187 122.88Z" fill="#263238"/>
<path d="M190.58 157.55C179.91 158.403 169.213 156.277 159.68 151.41C159.68 151.41 168.27 166.68 190.83 163.09L190.58 157.55Z" fill="#AA6550"/>
<path d="M174.18 88.09C173.92 88.96 170.77 88.76 167.13 89.44C163.49 90.12 160.58 91.31 160.04 90.58C159.8 90.23 160.27 89.39 161.41 88.49C162.933 87.3629 164.701 86.6124 166.57 86.3C168.437 85.956 170.359 86.0553 172.18 86.59C173.56 87.05 174.28 87.68 174.18 88.09Z" fill="#263238"/>
<path d="M203.15 88.85C202.65 89.6 200.44 89 197.85 89.13C195.26 89.26 193.09 89.92 192.54 89.21C192.29 88.86 192.54 88.13 193.54 87.39C194.777 86.5007 196.25 85.9992 197.772 85.9493C199.295 85.8995 200.798 86.3035 202.09 87.11C203 87.78 203.37 88.49 203.15 88.85Z" fill="#263238"/>
<path d="M182.16 128.77C184.61 128.77 185.83 129.49 187.91 130.77C188.536 131.1 189.051 131.608 189.39 132.23C189.55 132.677 189.605 133.154 189.551 133.626C189.498 134.098 189.336 134.551 189.08 134.95C188.569 135.858 187.808 136.601 186.889 137.092C185.969 137.583 184.929 137.801 183.89 137.72C182.854 137.611 181.878 137.182 181.098 136.492C180.319 135.801 179.774 134.885 179.54 133.87C179.346 132.847 179.499 131.788 179.973 130.861C180.447 129.934 181.217 129.191 182.16 128.75" fill="#AA6550"/>
<path d="M190.47 134C190.47 134.24 189.69 134.6 188.32 134.52C186.588 134.359 184.913 133.813 183.42 132.92C181.914 132.082 180.58 130.965 179.49 129.63C178.68 128.63 178.43 127.75 178.64 127.63C179.05 127.36 181.11 129.52 184.35 131.3C185.69 132.073 187.1 132.72 188.56 133.23C189.68 133.61 190.44 133.74 190.47 134Z" fill="#263238"/>
<path d="M175.02 114.48C175.478 114.48 175.85 114.108 175.85 113.65C175.85 113.192 175.478 112.82 175.02 112.82C174.562 112.82 174.19 113.192 174.19 113.65C174.19 114.108 174.562 114.48 175.02 114.48Z" fill="#AA6550"/>
<path d="M199.35 109.58C199.35 109.744 199.301 109.905 199.21 110.041C199.119 110.178 198.989 110.284 198.838 110.347C198.686 110.41 198.519 110.426 198.358 110.394C198.197 110.362 198.049 110.283 197.933 110.167C197.817 110.051 197.738 109.903 197.706 109.742C197.674 109.581 197.69 109.414 197.753 109.262C197.816 109.111 197.922 108.981 198.059 108.89C198.195 108.799 198.356 108.75 198.52 108.75C198.74 108.75 198.951 108.837 199.107 108.993C199.262 109.149 199.35 109.36 199.35 109.58Z" fill="#AA6550"/>
<path d="M203.94 111.74C203.953 111.857 203.941 111.976 203.905 112.088C203.869 112.201 203.809 112.304 203.731 112.392C203.652 112.48 203.555 112.55 203.448 112.599C203.34 112.647 203.223 112.672 203.105 112.672C202.987 112.672 202.87 112.647 202.763 112.599C202.655 112.55 202.558 112.48 202.48 112.392C202.401 112.304 202.341 112.201 202.305 112.088C202.269 111.976 202.257 111.857 202.27 111.74C202.293 111.534 202.39 111.344 202.544 111.206C202.699 111.068 202.898 110.992 203.105 110.992C203.312 110.992 203.512 111.068 203.666 111.206C203.82 111.344 203.918 111.534 203.94 111.74Z" fill="#AA6550"/>
<path d="M205.33 108.27C205.33 108.434 205.281 108.595 205.19 108.731C205.099 108.868 204.969 108.974 204.818 109.037C204.666 109.1 204.499 109.116 204.338 109.084C204.177 109.052 204.029 108.973 203.913 108.857C203.797 108.741 203.718 108.593 203.686 108.432C203.654 108.271 203.67 108.104 203.733 107.952C203.796 107.801 203.902 107.671 204.039 107.58C204.175 107.489 204.336 107.44 204.5 107.44C204.72 107.44 204.931 107.527 205.087 107.683C205.242 107.839 205.33 108.05 205.33 108.27Z" fill="#AA6550"/>
<path d="M172.05 117.32C172.052 117.487 172.004 117.65 171.913 117.789C171.822 117.929 171.692 118.038 171.538 118.103C171.385 118.168 171.216 118.186 171.052 118.155C170.889 118.124 170.738 118.045 170.62 117.928C170.501 117.81 170.42 117.661 170.387 117.498C170.354 117.334 170.37 117.165 170.433 117.011C170.496 116.857 170.604 116.725 170.742 116.632C170.881 116.54 171.044 116.49 171.21 116.49C171.431 116.49 171.643 116.577 171.801 116.732C171.958 116.888 172.047 117.099 172.05 117.32Z" fill="#AA6550"/>
<path d="M168.93 114C168.93 114.164 168.881 114.325 168.79 114.461C168.699 114.598 168.569 114.704 168.418 114.767C168.266 114.83 168.099 114.846 167.938 114.814C167.777 114.782 167.629 114.703 167.513 114.587C167.397 114.471 167.318 114.323 167.286 114.162C167.254 114.001 167.27 113.834 167.333 113.682C167.396 113.531 167.502 113.401 167.639 113.31C167.775 113.219 167.936 113.17 168.1 113.17C168.32 113.17 168.531 113.257 168.687 113.413C168.843 113.569 168.93 113.78 168.93 114Z" fill="#AA6550"/>
<path d="M182.53 103.94C182.437 102.761 182.253 101.591 181.98 100.44C181.158 97.3125 179.305 94.5538 176.72 92.61C174.956 91.2699 172.9 90.3653 170.72 89.97C168.222 89.5128 165.647 89.7303 163.26 90.6C161.974 91.0589 160.767 91.7133 159.68 92.54C158.529 93.3769 157.517 94.3892 156.68 95.54C154.894 97.9708 153.931 100.908 153.931 103.925C153.931 106.942 154.894 109.879 156.68 112.31C158.337 114.585 160.625 116.323 163.26 117.31C165.647 118.18 168.222 118.397 170.72 117.94C172.9 117.545 174.956 116.64 176.72 115.3C179.302 113.358 181.154 110.603 181.98 107.48C182.252 106.329 182.436 105.159 182.53 103.98C182.545 104.056 182.545 104.134 182.53 104.21V104.9C182.53 105.275 182.5 105.65 182.44 106.02C182.389 106.526 182.299 107.028 182.17 107.52C181.855 108.893 181.329 110.208 180.61 111.42C178.893 114.359 176.199 116.604 172.998 117.762C169.797 118.921 166.291 118.92 163.09 117.76C161.756 117.285 160.502 116.611 159.37 115.76C158.173 114.898 157.123 113.847 156.26 112.65C154.397 110.138 153.391 107.093 153.391 103.965C153.391 100.837 154.397 97.7923 156.26 95.28C157.123 94.0826 158.173 93.0324 159.37 92.17C160.502 91.3191 161.756 90.6447 163.09 90.17C165.557 89.2849 168.216 89.0777 170.79 89.57C172.825 89.9644 174.754 90.7872 176.447 91.9837C178.14 93.1802 179.559 94.7231 180.61 96.51C181.327 97.7224 181.853 99.0377 182.17 100.41C182.3 100.905 182.39 101.41 182.44 101.92C182.5 102.287 182.53 102.658 182.53 103.03V103.72C182.543 103.793 182.543 103.867 182.53 103.94Z" fill="white"/>
<path d="M188.8 99.57C187.687 99.2638 186.534 99.1289 185.38 99.17C184.242 99.3759 183.141 99.7464 182.11 100.27C182.11 100.27 182.32 99.89 182.88 99.51C183.614 99.0358 184.45 98.7412 185.32 98.65C186.195 98.5509 187.081 98.6676 187.9 98.99C188.52 99.24 188.83 99.51 188.8 99.57Z" fill="white"/>
<path d="M179.66 61.65C177.66 79.72 164.22 95.99 146.88 101.47C152.47 109.53 148.95 124.87 149.09 137.67C149.23 149.57 149.22 152.97 141.51 159.04C135.14 160.57 131.51 143.12 126.73 138.24C121.95 133.36 117.46 127.35 117.81 120.57C117.98 117.39 119.22 114.35 119.39 111.18C119.59 107.66 118.46 104.18 117.84 100.75C115.08 85.4 123 68.89 136.41 60.86C149.82 52.83 167.63 53.37 180.9 61.58" fill="#263238"/>
<path d="M141.39 135.94C139.728 130.103 136.871 124.675 133 120L133.29 120.62C132.094 117.893 130.294 115.474 128.025 113.545C125.756 111.617 123.078 110.23 120.193 109.49C117.309 108.749 114.294 108.675 111.377 109.272C108.46 109.869 105.716 111.122 103.355 112.936C100.993 114.75 99.0755 117.077 97.7465 119.742C96.4174 122.406 95.7119 125.338 95.6835 128.316C95.6551 131.294 96.3045 134.239 97.5825 136.928C98.8605 139.618 100.734 141.981 103.06 143.84C100.81 143.34 98.5301 145.28 98.0601 147.53C97.8856 148.675 97.9455 149.843 98.236 150.963C98.5265 152.084 99.0416 153.134 99.7501 154.05C104.44 160.91 115.07 162.72 121.75 157.8C127.05 161.39 134.88 159.3 138.81 154.25C142.74 149.2 143.2 142.08 141.39 135.94Z" fill="#263238"/>
<path d="M119.92 109.47C119.712 109.274 119.521 109.06 119.35 108.83C118.885 108.161 118.546 107.412 118.35 106.62C117.74 104.55 118.03 101.28 119.67 97.82C120.561 95.9256 121.788 94.208 123.29 92.75C124.935 91.0195 126.759 89.4676 128.73 88.12C130.911 86.6176 133.291 85.4261 135.8 84.58C138.39 83.69 141.14 83 143.94 82.3C146.74 81.6 149.48 80.91 152.04 80.01C154.508 79.1594 156.906 78.1162 159.21 76.89C163.108 74.8144 166.733 72.2614 170 69.29C172.202 67.2766 174.236 65.0859 176.08 62.74C176.74 61.91 177.22 61.24 177.55 60.74C177.706 60.5041 177.884 60.2832 178.08 60.08C177.95 60.3299 177.803 60.5704 177.64 60.8C177.33 61.27 176.88 61.96 176.24 62.8C174.447 65.2101 172.439 67.4527 170.24 69.5C166.97 72.535 163.327 75.1425 159.4 77.26C157.077 78.5048 154.66 79.5647 152.17 80.43C149.58 81.34 146.83 82.04 144.03 82.75C141.23 83.46 138.49 84.13 135.92 85C133.44 85.825 131.085 86.9858 128.92 88.45C126.972 89.7781 125.163 91.2991 123.52 92.99C122.057 94.436 120.864 96.1329 120 98C118.35 101.37 118 104.56 118.55 106.59C118.805 107.634 119.271 108.614 119.92 109.47Z" fill="#455A64"/>
<path d="M178.06 60.13C177.917 60.3305 177.76 60.521 177.59 60.7C177.27 61.07 176.78 61.59 176.15 62.26C174.336 64.1266 172.409 65.8799 170.38 67.51C167.379 69.9769 164.038 71.9977 160.46 73.51C158.312 74.3039 156.096 74.903 153.84 75.3C151.51 75.77 149.08 76.13 146.6 76.51C141.928 77.0685 137.313 78.0355 132.81 79.4C129.156 80.5926 125.763 82.4693 122.81 84.93C120.825 86.5942 119.187 88.633 117.99 90.93C117.678 91.5611 117.401 92.2087 117.16 92.87C117.089 93.1069 116.992 93.335 116.87 93.55C116.917 93.3092 116.98 93.0719 117.06 92.84C117.26 92.1555 117.51 91.487 117.81 90.84C118.954 88.4742 120.575 86.3702 122.57 84.66C125.525 82.1245 128.945 80.1885 132.64 78.96C137.161 77.5476 141.8 76.5435 146.5 75.96C148.99 75.59 151.41 75.22 153.72 74.77C155.95 74.3838 158.142 73.8016 160.27 73.03C163.813 71.5576 167.132 69.5951 170.13 67.2C172.176 65.6092 174.136 63.9101 176 62.11L177.51 60.63C177.676 60.4453 177.86 60.2777 178.06 60.13Z" fill="#455A64"/>
<path d="M203.45 40.35C203.45 40.46 201.5 40.53 198.45 41.35C197.623 41.5653 196.808 41.8257 196.01 42.13C195.14 42.42 194.26 42.85 193.31 43.27C189.265 45.2231 185.706 48.0514 182.89 51.55C182.27 52.38 181.65 53.14 181.17 53.93C180.691 54.6342 180.254 55.3654 179.86 56.12C178.39 58.88 177.86 60.78 177.78 60.74C177.846 60.2892 177.96 59.8468 178.12 59.42C178.264 58.9012 178.444 58.3933 178.66 57.9C178.913 57.2166 179.207 56.5487 179.54 55.9C179.913 55.1195 180.337 54.3646 180.81 53.64C181.28 52.84 181.89 52.05 182.51 51.2C183.94 49.4268 185.553 47.808 187.32 46.37C189.117 44.9742 191.058 43.7741 193.11 42.79C194.008 42.3678 194.929 41.9972 195.87 41.68C197.358 41.1581 198.891 40.7764 200.45 40.54C200.978 40.4376 201.513 40.3741 202.05 40.35C202.515 40.2954 202.985 40.2954 203.45 40.35Z" fill="#455A64"/>
<path d="M219.56 126.69C219.56 126.69 219.56 126.62 219.71 126.49L220.18 125.94C220.6 125.45 221.23 124.74 221.94 123.75C222.834 122.583 223.511 121.266 223.94 119.86C224.184 118.985 224.255 118.072 224.15 117.17C224.008 116.163 223.668 115.195 223.15 114.32C222.07 112.45 220.3 110.82 218.68 108.8C215.037 104.242 212.697 98.7816 211.91 93C211.588 89.7605 211.508 86.5015 211.67 83.25C211.831 80.0273 211.531 76.7981 210.78 73.66C209.98 70.9232 208.598 68.3922 206.726 66.2412C204.855 64.0902 202.54 62.3703 199.94 61.2C197.784 60.2337 195.461 59.697 193.1 59.62C188.706 59.4426 184.376 60.7184 180.78 63.25L180.18 63.67C180.05 63.76 179.98 63.81 179.97 63.8C180.905 62.9381 181.951 62.205 183.08 61.62C186.15 59.9725 189.597 59.1555 193.08 59.25C195.491 59.3093 197.869 59.8357 200.08 60.8C202.755 61.9813 205.139 63.7326 207.067 65.9314C208.994 68.1302 210.419 70.7235 211.24 73.53C212.005 76.7135 212.311 79.9899 212.15 83.26C211.989 86.4879 212.066 89.7234 212.38 92.94C213.14 98.6385 215.428 104.025 219 108.53C220.58 110.53 222.36 112.19 223.46 114.14C223.993 115.062 224.333 116.083 224.46 117.14C224.56 118.085 224.471 119.04 224.2 119.95C223.74 121.381 223.017 122.713 222.07 123.88C221.498 124.628 220.883 125.342 220.23 126.02L219.71 126.54C219.666 126.596 219.616 126.646 219.56 126.69Z" fill="#455A64"/>
<path d="M217.24 100.41C217.146 99.231 216.962 98.0609 216.69 96.91C215.867 93.7825 214.014 91.0238 211.43 89.08C209.531 87.6515 207.304 86.7202 204.954 86.3709C202.603 86.0216 200.202 86.2654 197.97 87.08C195.335 88.0669 193.047 89.8054 191.39 92.08C189.603 94.5086 188.639 97.4448 188.639 100.46C188.639 103.475 189.603 106.411 191.39 108.84C192.222 109.995 193.235 111.008 194.39 111.84C195.479 112.66 196.686 113.311 197.97 113.77C199.84 114.45 201.832 114.731 203.818 114.597C205.803 114.463 207.739 113.916 209.501 112.99C211.263 112.065 212.813 110.782 214.051 109.224C215.288 107.665 216.187 105.866 216.69 103.94C216.962 102.789 217.146 101.619 217.24 100.44C217.255 100.519 217.255 100.601 217.24 100.68C217.24 100.86 217.24 101.09 217.24 101.36C217.24 101.735 217.21 102.11 217.15 102.48C217.098 102.989 217.008 103.494 216.88 103.99C216.563 105.362 216.037 106.678 215.32 107.89C214.374 109.502 213.128 110.917 211.65 112.06C209.709 113.556 207.423 114.539 205.002 114.916C202.581 115.294 200.104 115.054 197.8 114.22C196.463 113.751 195.208 113.076 194.08 112.22C192.885 111.351 191.835 110.298 190.97 109.1C189.106 106.59 188.1 103.546 188.1 100.42C188.1 97.2936 189.106 94.2501 190.97 91.74C191.832 90.5426 192.882 89.4924 194.08 88.63C195.212 87.7791 196.466 87.1047 197.8 86.63C200.266 85.742 202.925 85.5314 205.5 86.02C207.541 86.4188 209.474 87.2498 211.167 88.4571C212.861 89.6645 214.277 91.2203 215.32 93.02C216.038 94.2281 216.564 95.5404 216.88 96.91C217.008 97.4058 217.098 97.9106 217.15 98.42C217.21 98.7903 217.24 99.1649 217.24 99.54C217.24 99.81 217.24 100.04 217.24 100.23C217.249 100.29 217.249 100.35 217.24 100.41Z" fill="white"/>
<path d="M141.37 159.41C141.193 159.322 141.028 159.211 140.88 159.08C140.57 158.85 140.13 158.5 139.55 158.08C137.933 156.785 136.416 155.371 135.01 153.85C132.84 151.605 131.356 148.788 130.73 145.73C130.522 143.925 130.442 142.107 130.49 140.29C130.524 138.387 129.98 136.518 128.93 134.93C127.753 133.405 126.445 131.986 125.02 130.69C123.699 129.41 122.609 127.912 121.8 126.26C121.084 124.765 120.559 123.186 120.24 121.56C119.939 120.15 119.801 118.711 119.83 117.27C119.83 115.94 120.14 114.78 120.26 113.76C120.377 112.888 120.397 112.006 120.32 111.13C120.15 109.69 119.87 108.92 119.92 108.9C120.012 109.075 120.086 109.26 120.14 109.45C120.307 109.99 120.434 110.541 120.52 111.1C120.627 111.993 120.627 112.897 120.52 113.79C120.43 114.79 120.19 115.99 120.16 117.28C120.175 120.315 120.858 123.309 122.16 126.05C122.956 127.647 124.021 129.095 125.31 130.33C126.771 131.639 128.11 133.078 129.31 134.63C129.891 135.465 130.321 136.396 130.58 137.38C130.809 138.327 130.933 139.296 130.95 140.27C130.9 142.066 130.97 143.863 131.16 145.65C131.74 148.645 133.15 151.417 135.23 153.65C136.603 155.183 138.076 156.622 139.64 157.96L141 159C141.136 159.124 141.26 159.262 141.37 159.41Z" fill="#455A64"/>
<path d="M130 136.12C130.017 136.256 130.017 136.394 130 136.53C130 136.8 130 137.19 129.92 137.7C129.751 139.137 129.415 140.55 128.92 141.91C127.34 146.474 124.203 150.336 120.059 152.818C115.915 155.299 111.03 156.242 106.26 155.48C104.831 155.264 103.432 154.885 102.09 154.35C101.61 154.17 101.26 153.97 101.02 153.86C100.78 153.75 100.66 153.67 100.67 153.65C102.497 154.325 104.386 154.817 106.31 155.12C108.401 155.39 110.52 155.353 112.6 155.01C117.751 154.221 122.389 151.446 125.52 147.28C126.802 145.609 127.833 143.759 128.58 141.79C129.232 139.949 129.708 138.051 130 136.12Z" fill="#455A64"/>
<path d="M126.15 131.42C126.108 131.887 126.011 132.347 125.86 132.79C125.506 134.016 125.033 135.205 124.45 136.34C122.504 140.109 119.556 143.268 115.93 145.47C112.295 147.647 108.165 148.859 103.93 148.99C102.657 149.029 101.382 148.962 100.12 148.79C99.6543 148.748 99.1948 148.654 98.75 148.51C100.47 148.634 102.196 148.67 103.92 148.62C108.071 148.391 112.103 147.155 115.67 145.02C119.217 142.858 122.134 139.803 124.13 136.16C124.906 134.626 125.581 133.042 126.15 131.42Z" fill="#455A64"/>
<path d="M96.8999 121.46C97.1745 121.246 97.4773 121.071 97.7999 120.94C98.1576 120.747 98.5285 120.58 98.9099 120.44C99.4091 120.231 99.92 120.05 100.44 119.9C101.786 119.496 103.17 119.228 104.57 119.1C106.285 118.95 108.012 118.984 109.72 119.2C111.426 119.441 113.102 119.86 114.72 120.45C116.034 120.955 117.294 121.591 118.48 122.35C118.935 122.636 119.373 122.95 119.79 123.29C120.121 123.527 120.432 123.792 120.72 124.08C120.986 124.304 121.225 124.559 121.43 124.84C121.36 124.92 120.31 123.84 118.28 122.66C117.093 121.961 115.844 121.372 114.55 120.9C112.957 120.355 111.316 119.96 109.65 119.72C107.992 119.512 106.318 119.461 104.65 119.57C103.275 119.677 101.913 119.908 100.58 120.26C98.2599 120.86 96.9999 121.55 96.8999 121.46Z" fill="#455A64"/>
<path d="M119.92 119.61C119.83 119.72 113.52 114.36 105.84 107.61C98.1598 100.86 91.9998 95.37 92.0898 95.26C92.1798 95.15 98.4898 100.52 106.18 107.26C113.87 114 120 119.51 119.92 119.61Z" fill="#3880FF"/>
<path d="M148.73 108.66C149.207 107.724 149.917 106.925 150.79 106.34C151.552 105.614 152.489 105.097 153.51 104.84C152.764 105.539 151.962 106.175 151.11 106.74C150.367 107.44 149.572 108.082 148.73 108.66Z" fill="white"/>
<path d="M120.65 114.29C120.6 114.228 120.557 114.161 120.52 114.09C120.43 113.92 120.32 113.72 120.18 113.48C119.792 112.671 119.529 111.808 119.4 110.92C119.031 107.594 119.978 104.256 122.04 101.62C122.691 100.736 123.439 99.9277 124.27 99.21C125.181 98.447 126.166 97.777 127.21 97.21C129.528 95.9958 132.016 95.1395 134.59 94.67C140 93.54 146.09 93.81 152.29 92.89C155.324 92.4888 158.268 91.5794 161 90.2C163.496 88.8432 165.752 87.0866 167.68 85C170.952 81.4459 173.572 77.3432 175.42 72.88C177.06 69.09 178.09 65.88 178.84 63.72L179.69 61.19L179.92 60.54C179.944 60.4642 179.974 60.3906 180.01 60.32C180.01 60.32 180.01 60.4 180.01 60.55L179.83 61.22L179 63.82C178.074 66.9556 176.983 70.0399 175.73 73.06C173.91 77.5924 171.292 81.7617 168 85.37C166.034 87.4944 163.729 89.2785 161.18 90.65C158.411 92.0646 155.422 92.9979 152.34 93.41C146.06 94.35 140 94.05 134.65 95.15C129.3 96.25 124.71 98.48 122.3 101.84C120.277 104.383 119.304 107.603 119.58 110.84C119.753 112.039 120.114 113.204 120.65 114.29Z" fill="#FAFAFA"/>
<path d="M127 154C126.791 155.383 126.387 156.73 125.8 158C125.124 159.527 124.246 160.957 123.19 162.25C121.789 163.978 120.071 165.424 118.13 166.51C115.752 167.799 113.095 168.485 110.39 168.51C107.268 168.582 104.2 167.684 101.61 165.94C98.7606 163.968 96.6993 161.054 95.7899 157.71C95.3041 155.949 95.2018 154.104 95.4899 152.3C95.8067 150.443 96.5195 148.677 97.5799 147.12C99.3088 144.496 101.961 142.619 105.01 141.86V142.36C101.917 141.882 98.9787 140.686 96.4299 138.87C94.0671 137.203 92.1841 134.944 90.9699 132.32C89.9014 129.961 89.444 127.372 89.6399 124.79C89.8051 122.559 90.5534 120.411 91.8099 118.56C92.8669 117.058 94.2302 115.797 95.8099 114.86C96.9837 114.167 98.2645 113.673 99.5999 113.4C100.436 113.234 101.289 113.17 102.14 113.21L102.79 113.28C102.863 113.269 102.937 113.269 103.01 113.28C101.877 113.221 100.741 113.309 99.6299 113.54C98.3286 113.838 97.0852 114.348 95.9499 115.05C94.4347 115.99 93.1333 117.236 92.1299 118.71C90.9279 120.519 90.2211 122.612 90.0799 124.78C89.9127 127.29 90.3732 129.802 91.4199 132.09C92.6136 134.632 94.451 136.817 96.7499 138.43C99.2462 140.188 102.114 141.348 105.13 141.82L106.42 142.02L105.15 142.32C102.225 143.052 99.6833 144.859 98.0299 147.38C97.0107 148.883 96.3285 150.589 96.0299 152.38C95.7559 154.114 95.8514 155.886 96.3099 157.58C97.1771 160.825 99.1643 163.659 101.92 165.58C104.425 167.278 107.394 168.161 110.42 168.11C113.061 168.1 115.66 167.445 117.99 166.2C119.9 165.157 121.597 163.763 122.99 162.09C124.051 160.827 124.945 159.432 125.65 157.94C126.087 156.994 126.458 156.018 126.76 155.02C126.85 154.7 126.92 154.44 126.97 154.23L127 154Z" fill="#263238"/>
<path d="M121.11 110.75C121.025 110.725 120.944 110.688 120.87 110.64L120.17 110.27C119.295 109.769 118.462 109.197 117.68 108.56C114.775 106.187 112.558 103.08 111.26 99.56C109.754 95.3881 109.621 90.844 110.88 86.5911C112.139 82.3382 114.725 78.5992 118.26 75.92C121.088 73.8355 124.269 72.2773 127.65 71.32C131.03 70.3656 134.497 69.7526 138 69.49C141.36 69.17 144.6 69.02 147.68 68.81C150.595 68.6266 153.499 68.2928 156.38 67.81C158.882 67.3799 161.336 66.7102 163.71 65.81C167.155 64.5388 170.296 62.5596 172.93 60C173.623 59.2803 174.268 58.5153 174.86 57.71L175.32 57.08C175.367 57.003 175.425 56.9325 175.49 56.87C174.832 58.0624 174.018 59.162 173.07 60.14C170.456 62.7896 167.296 64.8372 163.81 66.14C161.42 67.0691 158.945 67.7624 156.42 68.21C153.526 68.6972 150.609 69.031 147.68 69.21C141.53 69.7 134.68 69.75 127.83 71.78C124.511 72.7224 121.386 74.246 118.6 76.28C115.135 78.8961 112.591 82.5444 111.333 86.6994C110.075 90.8544 110.168 95.3016 111.6 99.4C112.854 102.863 114.992 105.937 117.8 108.32C118.562 108.972 119.371 109.567 120.22 110.1L120.88 110.51C120.967 110.579 121.044 110.66 121.11 110.75Z" fill="#263238"/>
<path d="M232.55 96C232.435 96.1369 232.293 96.2484 232.133 96.3276C231.973 96.4068 231.798 96.4519 231.62 96.46C231.101 96.4701 230.591 96.324 230.155 96.0404C229.72 95.7569 229.38 95.3491 229.18 94.87C229.026 94.5222 228.958 94.1424 228.983 93.7628C229.007 93.3832 229.123 93.0152 229.32 92.69C229.782 91.9212 230.485 91.327 231.32 91C232.339 90.6314 233.436 90.5298 234.505 90.7049C235.575 90.8799 236.582 91.3258 237.43 92C238.453 92.7381 239.241 93.7554 239.7 94.93C240.186 96.2066 240.283 97.5982 239.98 98.93C239.673 100.374 238.892 101.673 237.76 102.62C236.562 103.613 235.098 104.232 233.55 104.4C231.899 104.52 230.243 104.267 228.702 103.662C227.162 103.056 225.777 102.112 224.65 100.9C223.408 99.6715 222.437 98.1965 221.8 96.57C221.149 94.8794 220.976 93.0423 221.3 91.26C221.646 89.5172 222.189 87.8196 222.92 86.2C223.59 84.6 224.21 83.02 224.73 81.44C225.77 78.4046 226.441 75.2554 226.73 72.06C226.998 69.177 226.823 66.2699 226.21 63.44C225.664 60.9618 224.701 58.5946 223.36 56.44C221.429 53.306 218.657 50.7768 215.36 49.14C214.459 48.7312 213.526 48.3968 212.57 48.14L211.81 47.95C211.723 47.9325 211.638 47.9022 211.56 47.86H211.82L212.59 48C213.572 48.2232 214.53 48.5414 215.45 48.95C218.821 50.5513 221.663 53.0844 223.64 56.25C225.031 58.3955 226.046 60.7629 226.64 63.25C227.284 66.1226 227.48 69.0775 227.22 72.01C226.939 75.2457 226.267 78.4355 225.22 81.51C224.7 83.11 224.07 84.71 223.4 86.3C222.691 87.9033 222.161 89.5802 221.82 91.3C221.522 92.9793 221.687 94.7082 222.3 96.3C222.904 97.8648 223.835 99.2829 225.03 100.46C226.1 101.621 227.416 102.527 228.881 103.114C230.347 103.7 231.925 103.952 233.5 103.85C234.967 103.7 236.358 103.123 237.5 102.19C238.564 101.314 239.304 100.106 239.6 98.76C239.893 97.5045 239.813 96.1907 239.37 94.98C238.939 93.8696 238.204 92.9027 237.25 92.19C236.453 91.5425 235.503 91.1106 234.491 90.9355C233.479 90.7604 232.439 90.848 231.47 91.19C230.687 91.4792 230.022 92.021 229.58 92.73C229.39 93.0235 229.274 93.3591 229.242 93.7077C229.211 94.0562 229.265 94.4071 229.4 94.73C229.582 95.1814 229.892 95.5697 230.291 95.847C230.691 96.1242 231.164 96.2782 231.65 96.29C231.971 96.2753 232.281 96.1751 232.55 96Z" fill="#263238"/>
<g opacity="0.2">
<path d="M226.17 322.32C231.03 320.95 236.07 325.32 241 324.19C244 323.49 246.26 320.81 247.62 318C248.98 315.19 249.71 312.09 251.15 309.31C252.59 306.53 254.99 303.98 258.09 303.55C260.93 303.17 264.3 304.5 266.41 302.55C268.04 301.05 267.82 298.27 266.52 296.48C265.22 294.69 263.16 293.64 261.17 292.66C258.987 291.468 256.667 290.548 254.26 289.92C251.829 289.301 249.255 289.6 247.03 290.76C242.87 293.18 242.03 298.67 240.82 303.33C240.082 306.608 238.694 309.706 236.74 312.44C234.755 315.182 231.815 317.08 228.5 317.76C227.223 317.806 225.972 318.127 224.83 318.7C223.78 319.42 223.37 321.22 224.46 321.89" fill="black"/>
</g>
<path d="M200.84 304.35L219.06 298L235.39 272.47C236.187 271.225 237.229 270.155 238.453 269.326C239.677 268.497 241.058 267.927 242.51 267.65L271.8 262.12C272.172 263.236 272.122 264.45 271.659 265.531C271.197 266.613 270.354 267.488 269.29 267.99C265.38 270.22 247.79 274.32 247.79 274.32L274.88 273.86C274.88 273.86 275.71 277.77 272.64 279.17C269.57 280.57 250.27 281.27 250.27 281.27L275 284.79C275 284.79 275.14 288.72 269.49 288.79C263.926 288.739 258.369 288.406 252.84 287.79C252.611 287.755 252.377 287.813 252.19 287.949C252.003 288.086 251.877 288.291 251.84 288.52C251.804 288.741 251.853 288.967 251.977 289.152C252.102 289.338 252.292 289.47 252.51 289.52L268.94 293.4C269.414 293.505 269.839 293.765 270.151 294.137C270.462 294.51 270.641 294.975 270.66 295.46C270.68 295.945 270.538 296.422 270.258 296.819C269.977 297.215 269.574 297.507 269.11 297.65C268.809 297.726 268.498 297.747 268.19 297.71C265.4 297.43 248.67 295.31 248.67 295.31C248.67 295.31 242.77 315.99 238.95 317.66C235.13 319.33 227.12 319.79 227.12 319.79L210.12 326.52L200.84 304.35Z" fill="#B78876"/>
<path d="M273 273.78C272.533 273.879 272.057 273.926 271.58 273.92L267.7 274.11C264.43 274.25 259.9 274.41 254.91 274.54L247.86 274.72C245.963 274.641 244.068 274.912 242.27 275.52C241.086 275.986 240.081 276.816 239.4 277.89C239.181 278.303 238.991 278.731 238.83 279.17C238.81 279.048 238.81 278.923 238.83 278.8C238.907 278.453 239.028 278.117 239.19 277.8C239.841 276.63 240.866 275.711 242.1 275.19C243.928 274.512 245.871 274.193 247.82 274.25L254.82 274.03C259.82 273.9 264.35 273.8 267.62 273.75H271.5C272 273.718 272.502 273.728 273 273.78Z" fill="#AA6550"/>
<path d="M273.41 284.86C272.971 284.877 272.532 284.847 272.1 284.77L268.56 284.32C265.56 283.93 261.44 283.32 256.89 282.66C254.62 282.34 252.45 281.93 250.49 281.76C248.771 281.553 247.029 281.866 245.49 282.66C244.464 283.23 243.579 284.023 242.9 284.98C242.42 285.66 242.23 286.09 242.19 286.07C242.206 285.955 242.239 285.844 242.29 285.74C242.412 285.435 242.559 285.141 242.73 284.86C243.373 283.824 244.259 282.959 245.31 282.34C246.898 281.454 248.722 281.084 250.53 281.28C252.53 281.43 254.7 281.83 256.98 282.14C261.53 282.82 265.65 283.47 268.62 283.96L272.14 284.57C272.572 284.625 272.997 284.722 273.41 284.86Z" fill="#AA6550"/>
<path d="M259.66 291.15C258.693 291.013 257.737 290.806 256.8 290.53C255.04 290.1 252.62 289.46 249.94 288.91C249.302 288.761 248.653 288.664 248 288.62C247.414 288.643 246.844 288.811 246.34 289.11C245.444 289.605 244.691 290.321 244.15 291.19C243.702 292.038 243.408 292.959 243.28 293.91C243.196 293.652 243.176 293.378 243.22 293.11C243.272 292.376 243.477 291.661 243.82 291.01C244.357 290.045 245.145 289.244 246.1 288.69C246.674 288.348 247.322 288.149 247.99 288.11C248.68 288.147 249.365 288.241 250.04 288.39C252.76 288.96 255.16 289.65 256.89 290.17C257.843 290.404 258.771 290.732 259.66 291.15Z" fill="#AA6550"/>
<path d="M65.5898 318.08L120.24 311.36L216.09 295.78L228.46 326.87C192.46 339.35 155.52 350.61 119.28 360.51C116.318 361.101 113.299 361.356 110.28 361.27C98.1798 361.32 68.3398 356.46 65.5898 318.08Z" fill="#3880FF"/>
<path d="M228.46 326.87C228.367 326.691 228.283 326.508 228.21 326.32C228.04 325.93 227.82 325.39 227.52 324.69C226.93 323.23 226.07 321.13 224.98 318.45L215.89 295.85L216.12 295.98L169.55 303.76C158.55 305.65 148 306.88 138.44 308.15C133.65 308.78 129.11 309.41 124.88 310.15C122.76 310.49 120.72 310.823 118.76 311.15C116.882 311.451 115.022 311.858 113.19 312.37C107.672 314.109 103.023 317.885 100.19 322.93C99.4141 324.287 98.7743 325.717 98.28 327.2C98.11 327.71 98 328.11 97.93 328.37C97.8956 328.507 97.8487 328.641 97.79 328.77C97.8832 328.228 98.0136 327.694 98.18 327.17C98.6355 325.663 99.2489 324.208 100.01 322.83C101.212 320.641 102.759 318.659 104.59 316.96C107.041 314.719 109.947 313.034 113.11 312.02C114.955 311.495 116.828 311.071 118.72 310.75C120.72 310.39 122.72 310.02 124.84 309.67C129.08 308.97 133.62 308.31 138.4 307.67C147.97 306.38 158.51 305.14 169.49 303.24L216.08 295.57H216.25L216.31 295.73C220.03 305.17 223.09 312.95 225.23 318.39L227.67 324.67C227.94 325.38 228.14 325.93 228.3 326.32C228.46 326.71 228.46 326.87 228.46 326.87Z" fill="#263238"/>
<path d="M95 359.62C95.1492 359.636 95.2966 359.666 95.44 359.71L96.71 360.02C97.83 360.26 99.48 360.64 101.64 360.9C107.742 361.652 113.928 361.354 119.93 360.02C121.83 359.62 123.79 359.08 125.84 358.5L132.22 356.7L146.22 352.7C156.11 349.82 166.96 346.59 178.31 343.06C197.31 337.16 214.77 331.38 228.31 326.71L228.19 326.98C224.45 317.48 221.38 309.71 219.25 304.28C218.2 301.59 217.39 299.48 216.82 298.02C216.55 297.32 216.35 296.78 216.2 296.38C216.05 295.98 216.01 295.82 216.01 295.82C216.01 295.82 216.1 296 216.26 296.36C216.42 296.72 216.64 297.29 216.93 297.98L219.46 304.19L228.57 326.83L228.65 327.03L228.45 327.1C214.89 331.84 197.45 337.65 178.45 343.56C167.1 347.09 156.24 350.31 146.34 353.17L132.26 357.17L125.87 358.93C123.87 359.5 121.87 360.04 119.94 360.43C113.895 361.739 107.669 361.986 101.54 361.16C99.3155 360.858 97.1253 360.343 95 359.62Z" fill="#263238"/>
<path d="M116.18 311.36C115.732 311.478 115.273 311.549 114.81 311.57L111.06 311.94L98.7 313.15L86.34 314.47L82.59 314.86C82.1343 314.938 81.6715 314.965 81.21 314.94C81.6547 314.809 82.1096 314.715 82.57 314.66C83.45 314.52 84.72 314.33 86.3 314.11C89.45 313.67 93.81 313.11 98.64 312.64C103.47 312.17 107.86 311.79 111.03 311.58C112.62 311.47 113.91 311.4 114.8 311.36C115.259 311.321 115.721 311.321 116.18 311.36Z" fill="#263238"/>
<path d="M311.58 130.6C310.58 122.67 303.89 115.28 295.9 115.28C291.19 115.28 286.7 117.74 283.48 121.19C282.335 122.35 281.282 123.597 280.33 124.92C279.653 123.436 278.864 122.005 277.97 120.64C275.49 116.64 271.58 113.33 266.97 112.4C259.13 110.84 251.11 116.76 248.58 124.34C246.05 131.92 248.16 140.42 252.31 147.24C256.46 154.06 263.61 162.99 276.78 167.41C285.85 166.25 298.01 158.2 303.42 152.32C308.83 146.44 312.56 138.53 311.58 130.6Z" fill="#3880FF"/>
<path d="M308.7 144.83H308.44L307.67 144.78L304.67 144.53L293.81 143.53L294 143.41L289.48 155.21L289.2 155.92L289.02 155.18C287.65 149.45 286.1 143.04 284.47 136.28L283 130.13L283.46 130.23L275.17 141.63L275.09 141.73H275L255.91 139.73L250.51 139.13L249.08 138.95L248.59 138.86C248.756 138.845 248.924 138.845 249.09 138.86L250.52 138.97L255.94 139.44L275.04 141.24L274.83 141.34L283.08 129.91L283.41 129.46L283.54 130C284.02 132 284.54 134.07 285.02 136.17C286.63 142.93 288.16 149.35 289.53 155.08H289.07L293.69 143.31L293.74 143.18H293.88L304.73 144.34L307.68 144.69L308.44 144.79L308.7 144.83Z" fill="#FAFAFA"/>
<path d="M10.4736 286.3L26.6489 291.091L23.8939 300.391C23.5587 301.523 22.7877 302.475 21.7505 303.038C20.7133 303.601 19.4949 303.73 18.3633 303.394L10.6928 301.122C9.56115 300.787 8.60904 300.016 8.04589 298.979C7.48274 297.942 7.35468 296.723 7.68988 295.592L10.4448 286.291L10.4736 286.3Z" fill="#3880FF"/>
<path opacity="0.3" d="M10.4731 286.3L26.6484 291.091L23.8906 300.401C23.557 301.528 22.7894 302.475 21.7569 303.036C20.7244 303.597 19.5114 303.724 18.3849 303.39L10.7143 301.118C10.1565 300.953 9.63673 300.68 9.18462 300.313C8.73251 299.947 8.35695 299.496 8.07936 298.984C7.80177 298.473 7.6276 297.912 7.56679 297.334C7.50598 296.755 7.55972 296.17 7.72495 295.613L10.4827 286.302L10.4731 286.3Z" fill="black"/>
<path d="M24.1204 300.39C21.3446 299.847 18.6058 299.128 15.9204 298.24C13.202 297.517 10.5304 296.629 7.92041 295.58C10.6954 296.131 13.4339 296.853 16.1204 297.74C18.8377 298.462 21.5092 299.347 24.1204 300.39Z" fill="#263238"/>
<path d="M13 297C13.0683 296.744 13.1866 296.505 13.3481 296.295C13.5095 296.086 13.711 295.911 13.9407 295.779C14.1704 295.648 14.4239 295.564 14.6864 295.531C14.9489 295.499 15.2152 295.519 15.47 295.59L18.71 296.59C18.9612 296.67 19.1942 296.798 19.3957 296.968C19.5971 297.138 19.763 297.346 19.8838 297.58C20.0046 297.814 20.0779 298.07 20.0996 298.332C20.1212 298.595 20.0908 298.859 20.01 299.11L13 297Z" fill="#263238"/>
<path d="M25.9303 207.73L7.93027 282.14C7.51837 283.71 7.72561 285.379 8.50916 286.801C9.29271 288.223 10.5927 289.289 12.1403 289.78L23.9303 293.28C25.4528 293.7 27.0773 293.534 28.4839 292.816C29.8906 292.098 30.9773 290.879 31.5303 289.4L59.8003 217.75L25.9303 207.73Z" fill="#3880FF"/>
<path d="M57.4704 223.65C57.4704 223.79 50.0104 221.71 40.9004 219.01C31.7904 216.31 24.4304 214.01 24.4704 213.87C24.5104 213.73 31.9304 215.81 41.0504 218.51C50.1704 221.21 57.5104 223.51 57.4704 223.65Z" fill="#263238"/>
<path d="M27.0703 214.72C27.1209 213.648 27.3438 212.591 27.7303 211.59C27.9559 210.536 28.3439 209.524 28.8803 208.59C28.8362 209.662 28.6167 210.719 28.2303 211.72C28.0093 212.776 27.6174 213.79 27.0703 214.72Z" fill="#263238"/>
<path d="M29.7603 215.51C30.0196 213.387 30.6313 211.322 31.5703 209.4C31.5196 210.472 31.2968 211.529 30.9103 212.53C30.6848 213.577 30.2968 214.583 29.7603 215.51Z" fill="#263238"/>
<path d="M32.4399 216.31C32.4906 215.238 32.7134 214.181 33.0999 213.18C33.3204 212.125 33.7087 211.112 34.2499 210.18C34.2059 211.252 33.9863 212.309 33.5999 213.31C33.3789 214.366 32.9871 215.38 32.4399 216.31Z" fill="#263238"/>
<path d="M35.1304 217.1C35.3897 214.977 36.0014 212.912 36.9404 210.99C36.6685 213.111 36.0573 215.174 35.1304 217.1Z" fill="#263238"/>
<path d="M37.8101 217.9C37.8607 216.828 38.0835 215.771 38.4701 214.77C38.6905 213.715 39.0788 212.702 39.6201 211.77C39.576 212.842 39.3564 213.899 38.9701 214.9C38.749 215.956 38.3572 216.97 37.8101 217.9Z" fill="#263238"/>
<path d="M40.5 218.69C40.7593 216.567 41.3711 214.502 42.31 212.58C42.0381 214.701 41.427 216.764 40.5 218.69Z" fill="#263238"/>
<path d="M43.1802 219.49C43.2308 218.418 43.4536 217.361 43.8402 216.36C44.0606 215.305 44.4489 214.292 44.9902 213.36C44.9461 214.432 44.7265 215.489 44.3402 216.49C44.1191 217.546 43.7273 218.56 43.1802 219.49Z" fill="#263238"/>
<path d="M45.8604 220.28C45.917 219.209 46.1396 218.153 46.5204 217.15C46.7392 216.093 47.1311 215.079 47.6803 214.15C47.6237 215.221 47.4011 216.277 47.0204 217.28C46.8016 218.337 46.4096 219.351 45.8604 220.28Z" fill="#263238"/>
<path d="M48.5503 221.08C48.5936 220.008 48.8132 218.951 49.2003 217.95C49.4267 216.895 49.8182 215.883 50.3603 214.95C50.3097 216.022 50.0868 217.079 49.7003 218.08C49.4798 219.135 49.0916 220.148 48.5503 221.08Z" fill="#263238"/>
<path d="M51.23 221.87C51.5019 219.749 52.113 217.686 53.04 215.76C52.7806 217.883 52.1689 219.948 51.23 221.87Z" fill="#263238"/>
<path d="M53.9199 222.67C53.9633 221.598 54.1829 220.541 54.5699 219.54C54.791 218.484 55.1828 217.47 55.7299 216.54C55.6793 217.612 55.4565 218.669 55.0699 219.67C54.8495 220.725 54.4612 221.738 53.9199 222.67Z" fill="#263238"/>
<path d="M56.6001 223.46C56.872 221.339 57.4831 219.276 58.4101 217.35C58.1508 219.473 57.539 221.538 56.6001 223.46Z" fill="#263238"/>
<path d="M30.2804 246.63L31.5504 242.37L35.7604 243.62L34.5804 247.61L38.0204 248.62L36.7804 252.81L32.9704 251.69L31.8904 255.34L28.3704 254.29L29.5304 250.37L25.3804 249.14L26.4804 245.43L30.2804 246.63Z" fill="white"/>
<path d="M40.4604 251.44C40.4004 251.44 40.6804 250.64 40.7504 249.17C40.8339 247.096 40.2369 245.053 39.0504 243.35C38.2427 242.184 37.1655 241.23 35.9104 240.57C34.4646 239.828 32.8399 239.506 31.2204 239.64C29.4305 239.804 27.7308 240.501 26.3404 241.64C24.8446 242.857 23.7512 244.497 23.2034 246.345C22.6555 248.194 22.6789 250.165 23.2704 252C23.814 253.709 24.8594 255.214 26.2704 256.32C27.5577 257.31 29.0949 257.923 30.7104 258.09C32.1226 258.221 33.5457 258.012 34.8604 257.48C36.7893 256.689 38.4029 255.283 39.4504 253.48C40.2004 252.21 40.3904 251.4 40.4504 251.42C40.4302 251.619 40.3832 251.814 40.3104 252C40.1403 252.549 39.9123 253.079 39.6304 253.58C38.6049 255.464 36.9736 256.948 35.0004 257.79C33.5354 258.417 31.9302 258.643 30.349 258.447C28.7677 258.25 27.2671 257.637 26.0004 256.67C24.4994 255.515 23.3837 253.932 22.8004 252.13C22.165 250.203 22.1307 248.128 22.7023 246.181C23.2739 244.235 24.4241 242.508 26.0004 241.23C27.4697 240.031 29.2698 239.309 31.1604 239.16C32.8651 239.021 34.5744 239.368 36.0904 240.16C37.3947 240.868 38.5094 241.88 39.3404 243.11C40.5272 244.876 41.0871 246.988 40.9304 249.11C40.8902 249.685 40.7931 250.254 40.6404 250.81C40.6139 251.028 40.5531 251.241 40.4604 251.44Z" fill="white"/>
</g>
<defs>
<clipPath id="clip0_83_87">
<rect width="321" height="348" fill="white"/>
</clipPath>
</defs>
</svg>
