<svg width="402" height="362" viewBox="0 0 402 362" fill="none" xmlns="http://www.w3.org/2000/svg">
<path d="M200 348.56C307.082 348.56 393.89 343.492 393.89 337.24C393.89 330.988 307.082 325.92 200 325.92C92.9174 325.92 6.10986 330.988 6.10986 337.24C6.10986 343.492 92.9174 348.56 200 348.56Z" fill="#F5F5F5"/>
<path d="M141.71 67.13L137.17 61.57L130.83 65.57C130.83 65.57 133.73 68.67 137.25 73L141.71 67.13Z" fill="#B55B52"/>
<path d="M198.32 67.58C198.06 68.14 197.88 68.48 197.66 68.91L197.03 70.11C196.6 70.9 196.18 71.68 195.73 72.45C194.85 73.9833 193.927 75.49 192.96 76.97C191.017 80.0004 188.872 82.8969 186.54 85.64C184.069 88.5675 181.286 91.2165 178.24 93.54C176.555 94.7854 174.761 95.8764 172.88 96.8L171.37 97.47L169.78 98.06C169.25 98.25 168.68 98.39 168.12 98.55L167.7 98.67L167.1 98.8C166.66 98.89 166.23 98.95 165.81 99C164.28 99.15 162.736 99.069 161.23 98.76C159.996 98.5176 158.787 98.1594 157.62 97.69C155.674 96.893 153.811 95.9048 152.06 94.74C149.03 92.6964 146.176 90.4017 143.53 87.88C140.96 85.49 138.58 83.02 136.3 80.5C135.16 79.23 134.03 77.97 132.93 76.67C131.83 75.37 130.78 74.12 129.64 72.67L140.7 64.09C141.56 65.18 142.59 66.43 143.58 67.58C144.57 68.73 145.58 69.91 146.64 71.04C148.74 73.29 150.89 75.46 153.1 77.45C155.183 79.3618 157.428 81.0883 159.81 82.61C160.758 83.2165 161.763 83.7289 162.81 84.14C163.67 84.47 164.31 84.46 164.12 84.41H164.02L164.19 84.36C164.41 84.27 164.62 84.22 164.85 84.13L165.52 83.84L166.22 83.49C167.22 82.936 168.17 82.297 169.06 81.58C171.104 79.8795 172.946 77.9503 174.55 75.83C176.305 73.5465 177.898 71.1441 179.32 68.64C180.053 67.36 180.743 66.06 181.39 64.74C181.72 64.09 182.04 63.43 182.39 62.74L182.83 61.74C182.96 61.44 183.13 61.05 183.2 60.87L198.32 67.58Z" fill="#3880FF"/>
<path opacity="0.8" d="M198.32 67.58C198.06 68.14 197.88 68.48 197.66 68.91L197.03 70.11C196.6 70.9 196.18 71.68 195.73 72.45C194.85 73.9833 193.927 75.49 192.96 76.97C191.017 80.0004 188.872 82.8969 186.54 85.64C184.069 88.5675 181.286 91.2165 178.24 93.54C176.555 94.7854 174.761 95.8764 172.88 96.8L171.37 97.47L169.78 98.06C169.25 98.25 168.68 98.39 168.12 98.55L167.7 98.67L167.1 98.8C166.66 98.89 166.23 98.95 165.81 99C164.28 99.15 162.736 99.069 161.23 98.76C159.996 98.5176 158.787 98.1594 157.62 97.69C155.674 96.893 153.811 95.9048 152.06 94.74C149.03 92.6964 146.176 90.4017 143.53 87.88C140.96 85.49 138.58 83.02 136.3 80.5C135.16 79.23 134.03 77.97 132.93 76.67C131.83 75.37 130.78 74.12 129.64 72.67L140.7 64.09C141.56 65.18 142.59 66.43 143.58 67.58C144.57 68.73 145.58 69.91 146.64 71.04C148.74 73.29 150.89 75.46 153.1 77.45C155.183 79.3618 157.428 81.0883 159.81 82.61C160.758 83.2165 161.763 83.7289 162.81 84.14C163.67 84.47 164.31 84.46 164.12 84.41H164.02L164.19 84.36C164.41 84.27 164.62 84.22 164.85 84.13L165.52 83.84L166.22 83.49C167.22 82.936 168.17 82.297 169.06 81.58C171.104 79.8795 172.946 77.9503 174.55 75.83C176.305 73.5465 177.898 71.1441 179.32 68.64C180.053 67.36 180.743 66.06 181.39 64.74C181.72 64.09 182.04 63.43 182.39 62.74L182.83 61.74C182.96 61.44 183.13 61.05 183.2 60.87L198.32 67.58Z" fill="white"/>
<path d="M196.1 227.4H228.38L216.14 166.22H200.33L196.1 227.4Z" fill="#3880FF"/>
<path opacity="0.6" d="M196.1 227.4H228.38L216.14 166.22H200.33L196.1 227.4Z" fill="white"/>
<path d="M203.02 328.1H194.79L194.44 309.05H202.67L203.02 328.1Z" fill="#B55B52"/>
<path d="M248.59 328.1H240.36L236.69 309.05H244.92L248.59 328.1Z" fill="#B55B52"/>
<path d="M239.8 327.15H249C249.162 327.149 249.319 327.204 249.445 327.306C249.571 327.409 249.657 327.551 249.69 327.71L251.13 335.02C251.162 335.2 251.155 335.385 251.107 335.562C251.059 335.739 250.973 335.903 250.855 336.043C250.736 336.182 250.588 336.294 250.421 336.37C250.254 336.445 250.073 336.483 249.89 336.48C246.67 336.43 245.11 336.24 241.04 336.24C238.54 336.24 233.38 336.5 229.93 336.5C226.48 336.5 226.11 333.09 227.53 332.78C233.9 331.39 236.34 329.48 238.41 327.65C238.798 327.321 239.291 327.144 239.8 327.15Z" fill="#263238"/>
<path d="M194.87 327.15H203.87C204.031 327.149 204.187 327.205 204.311 327.307C204.435 327.41 204.52 327.552 204.55 327.71L206 335C206.034 335.179 206.028 335.364 205.982 335.541C205.936 335.717 205.852 335.882 205.736 336.022C205.619 336.162 205.473 336.275 205.308 336.353C205.143 336.43 204.962 336.47 204.78 336.47C201.54 336.41 196.86 336.22 192.78 336.22C188.02 336.22 187.63 336.48 182.05 336.48C178.67 336.48 177.82 333.07 179.24 332.76C185.71 331.35 187.24 331.2 192.88 327.76C193.475 327.379 194.163 327.168 194.87 327.15Z" fill="#263238"/>
<path d="M134.1 59.67L128.78 59.59L127.78 66.45C131.167 67.0691 134.66 66.7225 137.86 65.45L137.77 63.22C137.729 62.2709 137.325 61.3737 136.643 60.7133C135.96 60.0528 135.05 59.6794 134.1 59.67Z" fill="#B55B52"/>
<path d="M120.46 59.91L121.49 64.24L127.76 66.45L128.78 59.59L120.46 59.91Z" fill="#B55B52"/>
<path opacity="0.2" d="M194.44 309.06L194.62 318.88H202.85L202.67 309.06H194.44Z" fill="black"/>
<path opacity="0.2" d="M244.92 309.06H236.69L238.59 318.88H246.82L244.92 309.06Z" fill="black"/>
<path d="M184.73 62.47C182.45 71.19 178.36 93.19 182.83 128.18H226.83C227.26 122.05 224.46 94.32 229.41 65.45C229.618 64.2747 229.584 63.0691 229.308 61.9076C229.033 60.7461 228.522 59.6534 227.808 58.6967C227.094 57.7401 226.192 56.9398 225.157 56.3453C224.122 55.7508 222.976 55.3747 221.79 55.24C220.08 55.05 218.27 54.89 216.48 54.8C210.33 54.6291 204.176 54.8294 198.05 55.4C195.437 55.6495 192.851 56.1246 190.32 56.82C188.973 57.1857 187.747 57.9008 186.765 58.893C185.783 59.8852 185.081 61.1192 184.73 62.47Z" fill="white"/>
<path d="M214.46 37.31C213.13 43.31 212.36 50.78 216.46 54.8C216.46 54.8 213.89 60.9 202.71 60.9C192.49 60.9 197.71 54.8 197.71 54.8C204.46 53.2 204.32 44.9 203.26 40.22L214.46 37.31Z" fill="#B55B52"/>
<path d="M202.2 60.07L199.78 62.74C199.694 62.8324 199.635 62.9462 199.609 63.0694C199.582 63.1926 199.59 63.3206 199.63 63.44L200.4 65.8C200.443 65.9324 200.525 66.0484 200.636 66.1324C200.747 66.2165 200.881 66.2645 201.02 66.27L203.63 66.4C203.754 66.4053 203.877 66.3787 203.987 66.3226C204.097 66.2666 204.191 66.183 204.26 66.08L205.82 63.79C205.914 63.6664 205.965 63.5154 205.965 63.36C205.965 63.2047 205.914 63.0536 205.82 62.93L203.3 60.06C203.234 59.9774 203.15 59.9109 203.054 59.8655C202.958 59.8201 202.854 59.797 202.748 59.798C202.642 59.799 202.537 59.8239 202.443 59.8711C202.348 59.9182 202.265 59.9862 202.2 60.07Z" fill="#3880FF"/>
<path d="M201.59 66.25C201.59 66.25 197.59 95.69 197.5 100.82C197.553 105.665 198.314 110.476 199.76 115.1C199.76 115.1 202.51 109.9 202.98 100.6C203.45 91.3 202.88 71.47 203.09 66.25H201.59Z" fill="#3880FF"/>
<path opacity="0.2" d="M203.32 40.23C203.95 42.97 204.25 46.95 203.03 50.11C203.83 50.46 207.13 49.19 208.5 48.32C211.55 46.38 212.73 44.48 213.85 40.43C214.03 39.36 214.23 38.32 214.46 37.31L203.32 40.23Z" fill="black"/>
<path d="M192.88 34.38C193.248 35.3156 193.8 36.1681 194.502 36.8876C195.204 37.6072 196.043 38.1791 196.97 38.57C199.46 39.57 201.07 37.39 200.67 34.84C200.32 32.55 198.59 29.25 195.95 29.32C195.368 29.3529 194.803 29.5269 194.304 29.8269C193.804 30.1269 193.385 30.544 193.083 31.0421C192.781 31.5402 192.605 32.1044 192.569 32.6859C192.534 33.2675 192.64 33.8489 192.88 34.38Z" fill="#B55B52"/>
<path opacity="0.2" d="M192.88 34.38C193.248 35.3156 193.8 36.1681 194.502 36.8876C195.204 37.6072 196.043 38.1791 196.97 38.57C199.46 39.57 201.07 37.39 200.67 34.84C200.32 32.55 198.59 29.25 195.95 29.32C195.368 29.3529 194.803 29.5269 194.304 29.8269C193.804 30.1269 193.385 30.544 193.083 31.0421C192.781 31.5402 192.605 32.1044 192.569 32.6859C192.534 33.2675 192.64 33.8489 192.88 34.38Z" fill="black"/>
<path d="M203 25.37C202.53 28.89 200.33 31.51 198.09 31.21C195.85 30.91 194.42 27.81 194.9 24.28C195.38 20.75 197.57 18.13 199.81 18.43C202.05 18.73 203.5 21.84 203 25.37Z" fill="#263238"/>
<path d="M218.4 29.51C216.4 37.51 215.62 42.27 210.81 45.73C203.59 50.94 194.44 45.58 194.06 37.2C193.71 29.66 197.06 17.86 205.46 15.96C207.302 15.5339 209.223 15.5947 211.034 16.1362C212.845 16.6778 214.484 17.6815 215.79 19.0487C217.096 20.4159 218.023 22.0995 218.48 23.9337C218.938 25.768 218.91 27.6897 218.4 29.51Z" fill="#B55B52"/>
<path d="M205.12 13.17C200.33 14.17 195.03 18.08 199.6 20.93C204.17 23.78 214.46 24.22 214.46 24.22C214.46 24.22 211.06 32.22 215.71 36.35C217.26 35.58 213.95 42.56 213.95 42.56C215.653 41.9734 217.078 40.7763 217.95 39.2C220.73 38.49 228.95 25.2 223.47 21.44C222.43 13.69 211.55 11.78 205.12 13.17Z" fill="#263238"/>
<path d="M216.68 34.33H216.57L209.37 31.03C209.334 31.0198 209.301 31.002 209.273 30.9778C209.245 30.9536 209.222 30.9236 209.206 30.8898C209.19 30.8561 209.182 30.8193 209.182 30.7821C209.181 30.7448 209.189 30.708 209.204 30.674C209.219 30.6399 209.242 30.6096 209.27 30.585C209.298 30.5603 209.331 30.542 209.366 30.5312C209.402 30.5204 209.439 30.5174 209.476 30.5223C209.513 30.5273 209.549 30.5402 209.58 30.56L216.79 33.86C216.852 33.8884 216.9 33.9399 216.925 34.0035C216.949 34.067 216.947 34.1376 216.92 34.2C216.896 34.2418 216.861 34.2761 216.819 34.299C216.776 34.322 216.728 34.3327 216.68 34.33Z" fill="white"/>
<path d="M220.33 39C218.947 40.5316 217.019 41.4612 214.96 41.59C212.25 41.73 211.55 39.14 212.85 36.88C214.02 34.88 216.85 32.32 219.29 33.25C221.73 34.18 222 37.11 220.33 39Z" fill="#B55B52"/>
<path d="M182.83 128.18C182.83 128.18 180.19 189.68 180.47 214.77C180.76 240.86 191.61 316.97 191.61 316.97H205.54C205.54 316.97 204.29 242.38 205.54 216.76C206.9 188.82 211.76 128.18 211.76 128.18H182.83Z" fill="#3880FF"/>
<path d="M206.19 310.82C206.26 310.82 206.45 317.26 206.45 317.26H190.39L189.47 310.26L206.19 310.82Z" fill="#263238"/>
<path opacity="0.2" d="M201.68 144.46C201.2 174.98 202.58 193.52 205.99 208.46C206.83 193.9 208.2 174.65 209.41 158.66L201.68 144.46Z" fill="black"/>
<path d="M198.44 128.18C198.44 128.18 206.24 191.04 210.78 214.59C215.78 240.38 234.78 316.97 234.78 316.97H249.85C249.85 316.97 237.96 242.47 235.38 216.97C232.59 189.26 226.81 128.22 226.81 128.22L198.44 128.18Z" fill="#3880FF"/>
<path d="M249.49 311.16C249.56 311.16 250.61 317.26 250.61 317.26H234.05L232.23 310.54L249.49 311.16Z" fill="#263238"/>
<path d="M205.89 29.72C205.76 30.38 205.32 30.85 204.89 30.78C204.46 30.71 204.22 30.12 204.34 29.46C204.46 28.8 204.91 28.33 205.34 28.4C205.77 28.47 206 29.06 205.89 29.72Z" fill="#263238"/>
<path d="M197.82 27.82C197.7 28.48 197.25 28.95 196.82 28.88C196.39 28.81 196.15 28.22 196.27 27.56C196.39 26.9 196.84 26.43 197.27 26.5C197.7 26.57 197.94 27.16 197.82 27.82Z" fill="#263238"/>
<path d="M201.18 29.47C199.811 31.1982 198.217 32.7351 196.44 34.04C196.776 34.4779 197.205 34.8359 197.696 35.0884C198.187 35.3408 198.728 35.4814 199.28 35.5L201.18 29.47Z" fill="#A02724"/>
<path d="M201.2 37.55C201.15 37.5381 201.107 37.5076 201.079 37.4648C201.051 37.4221 201.041 37.3702 201.05 37.32C201.06 37.2685 201.089 37.2229 201.132 37.193C201.175 37.1631 201.228 37.1512 201.28 37.16C202.092 37.3089 202.927 37.2672 203.72 37.0381C204.514 36.809 205.243 36.3989 205.85 35.84C205.885 35.8029 205.932 35.781 205.983 35.7791C206.034 35.7772 206.083 35.7955 206.12 35.83C206.157 35.8645 206.179 35.9123 206.181 35.9629C206.183 36.0136 206.165 36.0629 206.13 36.1C205.482 36.7156 204.697 37.1682 203.84 37.4203C202.983 37.6724 202.078 37.7169 201.2 37.55Z" fill="#263238"/>
<path d="M209.8 27.58C209.741 27.5659 209.687 27.5375 209.641 27.4974C209.596 27.4573 209.561 27.4067 209.54 27.35C209.382 26.8983 209.117 26.491 208.769 26.1622C208.422 25.8334 208 25.5926 207.54 25.46C207.439 25.4384 207.351 25.3779 207.295 25.2918C207.239 25.2056 207.219 25.1007 207.24 25C207.262 24.8989 207.322 24.8101 207.407 24.7523C207.493 24.6945 207.598 24.6722 207.7 24.69C208.296 24.8366 208.847 25.129 209.303 25.5409C209.758 25.9528 210.104 26.4713 210.31 27.05C210.343 27.1483 210.338 27.2557 210.295 27.3503C210.253 27.445 210.176 27.5199 210.08 27.56C209.992 27.6003 209.893 27.6074 209.8 27.58Z" fill="#263238"/>
<path d="M195.75 24.67C195.693 24.6578 195.641 24.6301 195.6 24.59C195.529 24.5157 195.49 24.4173 195.49 24.315C195.49 24.2127 195.529 24.1143 195.6 24.04C195.987 23.5529 196.482 23.1628 197.046 22.9007C197.61 22.6386 198.228 22.5116 198.85 22.53C198.9 22.5362 198.948 22.5522 198.992 22.5773C199.036 22.6023 199.074 22.6358 199.105 22.6758C199.136 22.7159 199.158 22.7616 199.171 22.8104C199.184 22.8592 199.187 22.91 199.18 22.96C199.175 23.0113 199.16 23.0611 199.135 23.1066C199.111 23.152 199.078 23.1922 199.038 23.2247C198.998 23.2573 198.952 23.2816 198.902 23.2962C198.853 23.3108 198.801 23.3155 198.75 23.31C198.258 23.2994 197.77 23.4053 197.327 23.6191C196.884 23.8329 196.498 24.1484 196.2 24.54C196.147 24.605 196.076 24.6524 195.995 24.6756C195.915 24.6988 195.829 24.6969 195.75 24.67Z" fill="#263238"/>
<path d="M205.74 34.4C205.542 34.3979 205.345 34.3812 205.15 34.35C204.681 34.2609 204.235 34.0798 203.837 33.8172C203.439 33.5546 203.096 33.2157 202.83 32.82C202.489 32.3112 202.252 31.7402 202.132 31.1397C202.011 30.5391 202.011 29.9208 202.13 29.32C202.265 28.226 202.824 27.2285 203.685 26.5408C204.547 25.8531 205.643 25.5298 206.74 25.64C207.685 25.8231 208.519 26.3732 209.06 27.17C209.744 28.1992 209.996 29.4567 209.76 30.67C209.623 31.6602 209.148 32.5726 208.416 33.2525C207.683 33.9324 206.738 34.3378 205.74 34.4ZM206.14 26.11C205.265 26.1719 204.439 26.5342 203.801 27.1357C203.163 27.7371 202.753 28.5406 202.64 29.41C202.425 30.4898 202.645 31.6105 203.25 32.53C203.48 32.8695 203.776 33.16 204.119 33.3849C204.462 33.6097 204.847 33.7644 205.25 33.84C206.21 33.9271 207.167 33.6348 207.914 33.0255C208.662 32.4161 209.141 31.5384 209.25 30.58C209.461 29.4989 209.239 28.3781 208.63 27.46C208.4 27.1197 208.105 26.8287 207.762 26.6037C207.418 26.3788 207.034 26.2246 206.63 26.15C206.468 26.1229 206.304 26.1095 206.14 26.11Z" fill="white"/>
<path d="M202.38 29.62C202.339 29.6196 202.298 29.6095 202.262 29.5903C202.225 29.5712 202.194 29.5437 202.17 29.51C202.007 29.1821 201.731 28.9248 201.392 28.7867C201.053 28.6485 200.675 28.6391 200.33 28.76C200.266 28.784 200.195 28.7828 200.132 28.7568C200.069 28.7309 200.018 28.682 199.99 28.62C199.963 28.5576 199.961 28.487 199.985 28.4235C200.01 28.3599 200.058 28.3084 200.12 28.28C200.578 28.1175 201.078 28.1228 201.532 28.2949C201.987 28.4671 202.365 28.7949 202.6 29.22C202.618 29.2489 202.631 29.2811 202.637 29.3149C202.643 29.3486 202.642 29.3832 202.635 29.4167C202.627 29.4501 202.613 29.4818 202.594 29.5098C202.574 29.5378 202.549 29.5617 202.52 29.58C202.479 29.6082 202.43 29.6222 202.38 29.62Z" fill="white"/>
<path d="M196.47 32.29C196.269 32.2885 196.069 32.2717 195.87 32.24C195.402 32.1509 194.955 31.9698 194.557 31.7072C194.159 31.4446 193.817 31.1057 193.55 30.71C192.866 29.6808 192.614 28.4233 192.85 27.21C192.986 26.1168 193.544 25.1202 194.406 24.4341C195.268 23.748 196.364 23.427 197.46 23.54C197.929 23.6253 198.376 23.8037 198.774 24.0648C199.173 24.3259 199.515 24.6643 199.78 25.06C200.465 26.0928 200.717 27.3535 200.48 28.57C200.344 29.5576 199.87 30.4675 199.139 31.1455C198.408 31.8235 197.465 32.2279 196.47 32.29ZM196.86 24C195.986 24.0619 195.159 24.4243 194.521 25.0257C193.884 25.6271 193.473 26.4306 193.36 27.3C193.253 27.8353 193.253 28.3864 193.359 28.9218C193.466 29.4572 193.677 29.9663 193.98 30.42C194.21 30.7603 194.505 31.0514 194.848 31.2763C195.192 31.5012 195.576 31.6555 195.98 31.73C196.941 31.8172 197.897 31.5248 198.645 30.9155C199.392 30.3062 199.872 29.4284 199.98 28.47C200.195 27.389 199.972 26.2668 199.36 25.35C198.893 24.6659 198.174 24.1948 197.36 24.04C197.195 24.0124 197.028 23.999 196.86 24Z" fill="white"/>
<path d="M237 328.58C236.445 328.624 235.892 328.48 235.43 328.17C235.291 328.046 235.185 327.89 235.119 327.716C235.053 327.542 235.029 327.355 235.05 327.17C235.055 327.054 235.09 326.942 235.151 326.844C235.212 326.746 235.298 326.665 235.4 326.61C236.31 326.15 238.93 327.78 239.23 327.96C239.263 327.98 239.289 328.011 239.303 328.047C239.317 328.083 239.32 328.122 239.31 328.16C239.304 328.199 239.287 328.235 239.26 328.264C239.233 328.292 239.198 328.312 239.16 328.32C238.452 328.488 237.727 328.575 237 328.58ZM235.82 326.88C235.734 326.879 235.649 326.896 235.57 326.93C235.529 326.952 235.495 326.986 235.472 327.026C235.449 327.067 235.438 327.113 235.44 327.16C235.419 327.29 235.431 327.423 235.475 327.547C235.518 327.671 235.592 327.782 235.69 327.87C236.13 328.25 237.2 328.3 238.61 328.02C237.776 327.465 236.842 327.078 235.86 326.88H235.82Z" fill="#3880FF"/>
<path d="M239.16 328.3C239.131 328.31 239.099 328.31 239.07 328.3C238.23 327.84 236.62 326.04 236.82 325.12C236.853 324.977 236.933 324.849 237.047 324.757C237.161 324.665 237.303 324.613 237.45 324.61C237.598 324.591 237.748 324.603 237.891 324.646C238.035 324.689 238.167 324.762 238.28 324.86C239.21 325.64 239.35 328.01 239.36 328.12C239.354 328.172 239.331 328.221 239.295 328.259C239.259 328.297 239.211 328.322 239.16 328.33V328.3ZM237.58 325H237.49C237.24 325 237.21 325.14 237.2 325.19C237.09 325.73 238.1 327.1 238.93 327.74C238.894 326.808 238.577 325.908 238.02 325.16C237.897 325.056 237.741 324.999 237.58 325Z" fill="#3880FF"/>
<path d="M191.42 328.59C190.714 328.657 190.007 328.477 189.42 328.08C189.288 327.963 189.188 327.815 189.128 327.649C189.069 327.483 189.052 327.304 189.08 327.13C189.087 327.024 189.12 326.921 189.178 326.832C189.236 326.743 189.316 326.67 189.41 326.62C190.41 326.05 193.69 327.73 194.06 327.93C194.097 327.948 194.127 327.977 194.146 328.014C194.165 328.05 194.172 328.092 194.165 328.133C194.158 328.173 194.139 328.21 194.109 328.239C194.079 328.267 194.041 328.285 194 328.29C193.151 328.47 192.287 328.57 191.42 328.59ZM190 326.88C189.873 326.878 189.747 326.902 189.63 326.95C189.593 326.971 189.563 327.002 189.542 327.039C189.52 327.076 189.51 327.118 189.51 327.16C189.489 327.275 189.499 327.394 189.537 327.504C189.576 327.614 189.642 327.713 189.73 327.79C190.22 328.24 191.57 328.32 193.4 328.01C192.339 327.443 191.189 327.061 190 326.88Z" fill="#3880FF"/>
<path d="M194 328.3H193.92C192.92 327.85 191.02 326.08 191.19 325.14C191.19 324.93 191.39 324.65 191.93 324.6C192.121 324.577 192.316 324.594 192.5 324.651C192.685 324.708 192.855 324.803 193 324.93C194 325.79 194.19 328.01 194.2 328.1C194.201 328.134 194.194 328.168 194.18 328.199C194.166 328.23 194.146 328.258 194.12 328.28C194.082 328.295 194.041 328.302 194 328.3ZM192.05 325H191.93C191.58 325 191.55 325.17 191.54 325.22C191.44 325.77 192.74 327.17 193.74 327.78C193.678 326.85 193.328 325.963 192.74 325.24C192.548 325.076 192.302 324.99 192.05 325Z" fill="#3880FF"/>
<path d="M217 54.25L226.5 55.39C228.075 55.5771 229.523 56.3489 230.556 57.5527C231.59 58.7565 232.133 60.3044 232.08 61.89C231.6 76.7 229.64 97.05 231.21 128.18C232 143.88 242.97 229.13 242.97 229.13L221.36 232.92C211.041 200.16 203.809 166.507 199.76 132.4C198.189 117.578 198.135 102.633 199.6 87.8L217 54.25Z" fill="#3880FF"/>
<path opacity="0.8" d="M217 54.25L226.5 55.39C228.075 55.5771 229.523 56.3489 230.556 57.5527C231.59 58.7565 232.133 60.3044 232.08 61.89C231.6 76.7 229.64 97.05 231.21 128.18C232 143.88 242.97 229.13 242.97 229.13L221.36 232.92C211.041 200.16 203.809 166.507 199.76 132.4C198.189 117.578 198.135 102.633 199.6 87.8L217 54.25Z" fill="white"/>
<path opacity="0.2" d="M224.76 73.15C224.76 75.37 226.46 86.67 230.67 94.47C230.79 89.15 230.98 84.29 231.2 79.83L224.76 73.15Z" fill="#3880FF"/>
<path opacity="0.2" d="M183.87 71.17C182.65 73.5 179.13 83.38 177.34 94.17C178.16 93.6 178.94 93.01 179.69 92.41C182.454 90.1146 184.993 87.5596 187.27 84.78L187.71 84.24L183.87 71.17Z" fill="#3880FF"/>
<path d="M196.93 55.22L191.32 55.9C188.631 56.2309 186.148 57.5086 184.315 59.5041C182.483 61.4997 181.421 64.0826 181.32 66.79C180.68 83.41 179.38 116.61 178.67 128.18C177.67 143.87 178.38 229.13 178.38 229.13L191.85 231.49C191.85 231.49 195.27 184.55 199.8 132.4C200.962 116.922 201.239 101.39 200.63 85.88L196.93 55.22Z" fill="#3880FF"/>
<path opacity="0.8" d="M196.93 55.22L191.32 55.9C188.631 56.2309 186.148 57.5086 184.315 59.5041C182.483 61.4997 181.421 64.0826 181.32 66.79C180.68 83.41 179.38 116.61 178.67 128.18C177.67 143.87 178.38 229.13 178.38 229.13L191.85 231.49C191.85 231.49 195.27 184.55 199.8 132.4C200.962 116.922 201.239 101.39 200.63 85.88L196.93 55.22Z" fill="white"/>
<path d="M202.73 59.83C203.984 61.842 204.991 63.9974 205.73 66.25C205.73 66.25 218.86 61.74 218.39 54.51C218.39 54.51 216.39 53.33 215.19 52.37C215.18 52.37 214.59 56.93 202.73 59.83Z" fill="#F5F5F5"/>
<path d="M202.73 59.83C201.233 61.5591 199.979 63.4834 199 65.55C197.385 64.336 196.195 62.6427 195.601 60.7119C195.006 58.7812 195.038 56.712 195.69 54.8C196.862 54.3272 198.069 53.946 199.3 53.66C199.3 53.66 198.35 58.28 202.73 59.83Z" fill="#F5F5F5"/>
<path opacity="0.2" d="M216.37 132.55L231.42 145.48L221.14 140.45L216.37 132.55Z" fill="#3880FF"/>
<path d="M231.48 59.18C232.12 60.07 232.6 60.77 233.14 61.56L234.67 63.87C235.67 65.4167 236.64 66.98 237.58 68.56C239.47 71.73 241.25 74.97 242.89 78.36C244.584 81.8277 246.025 85.4138 247.2 89.09C247.826 91.055 248.32 93.0594 248.68 95.09C249.061 97.2888 249.232 99.5189 249.19 101.75C249.004 105.96 248.192 110.119 246.78 114.09C245.502 117.744 243.923 121.286 242.06 124.68C240.287 127.962 238.334 131.143 236.21 134.21C235.17 135.737 234.097 137.237 232.99 138.71C232.44 139.45 231.87 140.19 231.29 140.92C230.71 141.65 230.16 142.33 229.44 143.17L218.87 134C219.27 133.52 219.87 132.84 220.31 132.22L221.79 130.3C222.79 129 223.71 127.68 224.62 126.3C226.416 123.633 228.061 120.869 229.55 118.02C230.978 115.296 232.172 112.456 233.12 109.53C233.995 106.951 234.471 104.253 234.53 101.53C234.411 98.8773 233.867 96.2608 232.92 93.78C231.87 90.8789 230.596 88.0637 229.11 85.36C227.59 82.56 225.9 79.78 224.11 77.07C223.2 75.72 222.26 74.38 221.3 73.07L219.84 71.12C219.36 70.5 218.84 69.8 218.41 69.31L231.48 59.18Z" fill="#3880FF"/>
<path opacity="0.8" d="M231.48 59.18C232.12 60.07 232.6 60.77 233.14 61.56L234.67 63.87C235.67 65.4167 236.64 66.98 237.58 68.56C239.47 71.73 241.25 74.97 242.89 78.36C244.584 81.8277 246.025 85.4138 247.2 89.09C247.826 91.055 248.32 93.0594 248.68 95.09C249.061 97.2888 249.232 99.5189 249.19 101.75C249.004 105.96 248.192 110.119 246.78 114.09C245.502 117.744 243.923 121.286 242.06 124.68C240.287 127.962 238.334 131.143 236.21 134.21C235.17 135.737 234.097 137.237 232.99 138.71C232.44 139.45 231.87 140.19 231.29 140.92C230.71 141.65 230.16 142.33 229.44 143.17L218.87 134C219.27 133.52 219.87 132.84 220.31 132.22L221.79 130.3C222.79 129 223.71 127.68 224.62 126.3C226.416 123.633 228.061 120.869 229.55 118.02C230.978 115.296 232.172 112.456 233.12 109.53C233.995 106.951 234.471 104.253 234.53 101.53C234.411 98.8773 233.867 96.2608 232.92 93.78C231.87 90.8789 230.596 88.0637 229.11 85.36C227.59 82.56 225.9 79.78 224.11 77.07C223.2 75.72 222.26 74.38 221.3 73.07L219.84 71.12C219.36 70.5 218.84 69.8 218.41 69.31L231.48 59.18Z" fill="white"/>
<path d="M218 76.52C217.677 77.275 217.101 77.8938 216.371 78.2698C215.641 78.6459 214.802 78.7555 214 78.58C213.634 78.5002 213.291 78.3395 212.996 78.1099C212.7 77.8803 212.459 77.5874 212.292 77.2528C212.124 76.9183 212.033 76.5504 212.026 76.1761C212.019 75.8019 212.095 75.4308 212.25 75.09C212.573 74.3356 213.15 73.7178 213.88 73.3434C214.611 72.9691 215.449 72.8618 216.25 73.04C216.615 73.1185 216.958 73.278 217.254 73.5066C217.55 73.7352 217.79 74.0272 217.958 74.361C218.126 74.6949 218.217 75.0621 218.224 75.4358C218.231 75.8094 218.155 76.1799 218 76.52Z" fill="#263238"/>
<path opacity="0.2" d="M218 76.52C217.677 77.275 217.101 77.8938 216.371 78.2698C215.641 78.6459 214.802 78.7555 214 78.58C213.634 78.5002 213.291 78.3395 212.996 78.1099C212.7 77.8803 212.459 77.5874 212.292 77.2528C212.124 76.9183 212.033 76.5504 212.026 76.1761C212.019 75.8019 212.095 75.4308 212.25 75.09C212.573 74.3356 213.15 73.7178 213.88 73.3434C214.611 72.9691 215.449 72.8618 216.25 73.04C216.615 73.1185 216.958 73.278 217.254 73.5066C217.55 73.7352 217.79 74.0272 217.958 74.361C218.126 74.6949 218.217 75.0621 218.224 75.4358C218.231 75.8094 218.155 76.1799 218 76.52Z" fill="white"/>
<path d="M214.71 75C214.628 75.0015 214.547 74.977 214.48 74.93C214.397 74.8699 214.341 74.7795 214.324 74.6785C214.307 74.5774 214.331 74.4738 214.39 74.39C221.83 64.04 219.75 54.84 219.73 54.75C219.709 54.698 219.699 54.642 219.702 54.586C219.704 54.5299 219.719 54.475 219.744 54.4251C219.77 54.3752 219.806 54.3315 219.85 54.2968C219.895 54.2621 219.946 54.2374 220 54.2243C220.055 54.2112 220.112 54.21 220.167 54.2209C220.222 54.2317 220.274 54.2543 220.319 54.2872C220.365 54.32 220.403 54.3622 220.43 54.4111C220.458 54.4599 220.475 54.5141 220.48 54.57C220.48 54.66 222.68 64.19 215.02 74.84C214.986 74.8908 214.94 74.9321 214.885 74.9601C214.831 74.9881 214.771 75.0018 214.71 75Z" fill="#263238"/>
<path d="M188.77 69.75C188.672 69.7481 188.578 69.7104 188.507 69.644C188.435 69.5777 188.39 69.4873 188.38 69.39C187.57 59.23 192.95 55.48 193.18 55.33C193.266 55.2746 193.369 55.2541 193.47 55.2727C193.57 55.2913 193.66 55.3476 193.72 55.43C193.777 55.5162 193.797 55.6215 193.777 55.7228C193.756 55.824 193.696 55.9129 193.61 55.97C193.56 55.97 188.38 59.65 189.16 69.33C189.165 69.4319 189.131 69.5318 189.063 69.6084C188.996 69.6851 188.902 69.7323 188.8 69.74L188.77 69.75Z" fill="#263238"/>
<path d="M216.91 76.25C216.585 77.0038 216.009 77.6215 215.279 77.9972C214.55 78.373 213.712 78.4836 212.91 78.31C212.543 78.2319 212.199 78.0722 211.902 77.843C211.606 77.6137 211.364 77.3207 211.196 76.9855C211.028 76.6504 210.938 76.2818 210.932 75.9069C210.925 75.5321 211.003 75.1606 211.16 74.82C211.492 74.0748 212.072 73.468 212.802 73.1032C213.531 72.7384 214.365 72.6383 215.16 72.82C215.518 72.9019 215.854 73.0612 216.143 73.2869C216.433 73.5126 216.669 73.7991 216.836 74.1262C217.003 74.4532 217.096 74.8129 217.109 75.1799C217.122 75.5469 217.054 75.9122 216.91 76.25Z" fill="#263238"/>
<path opacity="0.4" d="M216.91 76.25C216.585 77.0038 216.009 77.6215 215.279 77.9972C214.55 78.373 213.712 78.4836 212.91 78.31C212.543 78.2319 212.199 78.0722 211.902 77.843C211.606 77.6137 211.364 77.3207 211.196 76.9855C211.028 76.6504 210.938 76.2818 210.932 75.9069C210.925 75.5321 211.003 75.1606 211.16 74.82C211.492 74.0748 212.072 73.468 212.802 73.1032C213.531 72.7384 214.365 72.6383 215.16 72.82C215.518 72.9019 215.854 73.0612 216.143 73.2869C216.433 73.5126 216.669 73.7991 216.836 74.1262C217.003 74.4532 217.096 74.8129 217.109 75.1799C217.122 75.5469 217.054 75.9122 216.91 76.25Z" fill="white"/>
<path opacity="0.4" d="M215.23 75.71C215.059 76.1073 214.754 76.4325 214.369 76.6297C213.984 76.8268 213.542 76.8835 213.12 76.79C212.928 76.7478 212.749 76.6634 212.594 76.543C212.439 76.4226 212.313 76.2691 212.225 76.0938C212.137 75.9186 212.089 75.7259 212.084 75.5297C212.08 75.3336 212.12 75.139 212.2 74.96C212.373 74.5639 212.677 74.2399 213.062 74.043C213.447 73.8461 213.888 73.7885 214.31 73.88C214.501 73.9222 214.681 74.0066 214.836 74.1271C214.991 74.2475 215.117 74.4009 215.205 74.5762C215.293 74.7515 215.341 74.9442 215.346 75.1403C215.35 75.3364 215.31 75.5311 215.23 75.71Z" fill="white"/>
<path d="M191.81 93.39C191.708 93.3874 191.612 93.3452 191.541 93.2723C191.47 93.1995 191.43 93.1018 191.43 93C191.429 92.9493 191.438 92.8988 191.456 92.8515C191.475 92.8043 191.502 92.7612 191.538 92.7248C191.573 92.6885 191.615 92.6596 191.662 92.6399C191.709 92.6202 191.759 92.61 191.81 92.61C192.544 92.5885 193.244 92.2988 193.778 91.7957C194.313 91.2926 194.644 90.6111 194.71 89.88L195.45 76.88C195.512 75.968 195.385 75.0531 195.076 74.1926C194.768 73.3321 194.285 72.5447 193.658 71.8798C193.03 71.2149 192.272 70.687 191.431 70.329C190.59 69.9711 189.684 69.791 188.77 69.8C186.847 69.8233 185.003 70.5698 183.606 71.8911C182.209 73.2124 181.361 75.0114 181.23 76.93L180.48 89.93C180.453 90.2773 180.5 90.6264 180.616 90.9548C180.732 91.2831 180.916 91.5836 181.155 91.8368C181.394 92.0901 181.684 92.2906 182.005 92.4255C182.326 92.5604 182.672 92.6266 183.02 92.62C183.123 92.62 183.223 92.6611 183.296 92.7343C183.369 92.8074 183.41 92.9066 183.41 93.01C183.407 93.1127 183.366 93.2104 183.293 93.283C183.22 93.3556 183.123 93.3975 183.02 93.4C182.567 93.4038 182.118 93.314 181.702 93.1363C181.285 92.9586 180.91 92.6968 180.599 92.3673C180.288 92.0378 180.049 91.6477 179.896 91.2215C179.743 90.7952 179.68 90.3419 179.71 89.89L180.46 76.89C180.603 74.7751 181.538 72.7917 183.078 71.335C184.618 69.8784 186.65 69.0554 188.77 69.03C189.79 69.0207 190.802 69.2225 191.74 69.6228C192.679 70.0231 193.525 70.6133 194.225 71.3561C194.924 72.099 195.463 72.9785 195.806 73.9395C196.149 74.9004 196.29 75.922 196.22 76.94L195.48 89.94C195.412 90.8705 194.998 91.7417 194.318 92.3807C193.638 93.0197 192.743 93.38 191.81 93.39Z" fill="#263238"/>
<path d="M183.66 93C183.66 93.62 183.31 94.13 182.96 94.13C182.61 94.13 182.34 93.62 182.38 93C182.42 92.38 182.73 91.86 183.09 91.86C183.45 91.86 183.7 92.37 183.66 93Z" fill="#263238"/>
<path d="M192.46 93C192.46 93.62 192.11 94.13 191.75 94.13C191.39 94.13 191.13 93.62 191.17 93C191.21 92.38 191.52 91.86 191.88 91.86C192.24 91.86 192.49 92.37 192.46 93Z" fill="#263238"/>
<path d="M111.94 14L111.23 13.49C113.32 10.6283 116.258 8.49777 119.627 7.40095C122.997 6.30413 126.626 6.2968 130 7.38L129.73 8.22001C126.533 7.19536 123.095 7.20218 119.902 8.2395C116.71 9.27682 113.924 11.2921 111.94 14Z" fill="#3880FF"/>
<path d="M108.92 23H108.04C108.085 21.4028 108.358 19.8202 108.85 18.3L109.69 18.57C109.224 20.0025 108.964 21.4942 108.92 23Z" fill="#3880FF"/>
<path d="M155.93 23.7C155.162 22.0029 154.057 20.4795 152.682 19.2222C151.307 17.9648 149.691 16.9998 147.933 16.3855C146.174 15.7711 144.309 15.5204 142.45 15.6484C140.591 15.7763 138.778 16.2804 137.12 17.13C136.286 15.5026 135.136 14.0577 133.737 12.8798C132.338 11.702 130.719 10.8148 128.973 10.2701C127.227 9.72545 125.39 9.53423 123.57 9.70763C121.749 9.88103 119.982 10.4156 118.37 11.28C111.7 14.86 109.37 23.34 112.84 30.09L121.84 47.66C122.277 48.5152 122.879 49.2758 123.61 49.8981C124.341 50.5205 125.188 50.9925 126.102 51.2869C127.016 51.5814 127.98 51.6926 128.937 51.6142C129.894 51.5358 130.826 51.2693 131.68 50.83L149.32 41.83C152.537 40.2329 155.018 37.4603 156.248 34.0858C157.478 30.7113 157.364 26.993 155.93 23.7Z" fill="#3880FF"/>
</svg>
